<svg width="32" height="32" viewBox="0 0 32 32" fill="none" xmlns="http://www.w3.org/2000/svg">
<circle cx="16" cy="16" r="16" fill="#D9D9D9"/>
<path d="M24.75 16L19.75 21L18.8662 20.1163L22.9825 16L18.8662 11.8837L19.75 11L24.75 16Z" fill="#797979"/>
<path d="M16.0001 19.75C15.918 19.7501 15.8367 19.734 15.7609 19.7025C15.6851 19.6711 15.6162 19.625 15.5582 19.5669L12.4332 16.4419C12.3161 16.3247 12.2502 16.1657 12.2502 16C12.2502 15.8343 12.3161 15.6753 12.4332 15.5581L15.5582 12.4331C15.6754 12.316 15.8344 12.2501 16.0001 12.2501C16.1658 12.2501 16.3248 12.316 16.442 12.4331L19.567 15.5581C19.6842 15.6753 19.75 15.8343 19.75 16C19.75 16.1657 19.6842 16.3247 19.567 16.4419L16.442 19.5669C16.384 19.625 16.3151 19.6711 16.2393 19.7025C16.1635 19.734 16.0822 19.7501 16.0001 19.75ZM13.7589 16L16.0001 18.2413L18.2414 16L16.0001 13.7587L13.7589 16Z" fill="#797979"/>
<path d="M7.25 16L12.25 11L13.1337 11.8837L9.0175 16L13.1337 20.1163L12.25 21L7.25 16Z" fill="#797979"/>
</svg>
