<svg width="32" height="32" viewBox="0 0 32 32" fill="none" xmlns="http://www.w3.org/2000/svg">
<circle cx="16" cy="16" r="16" fill="#D9D9D9"/>
<path d="M23.3117 18.5235L19.6211 16.8696C19.4539 16.7979 19.2714 16.7691 19.0903 16.7858C18.9091 16.8024 18.735 16.864 18.5836 16.9649C18.5682 16.9747 18.5536 16.9857 18.5399 16.9977L16.6109 18.6383C16.5909 18.6492 16.5687 18.6553 16.5459 18.6562C16.5231 18.657 16.5004 18.6525 16.4797 18.643C15.2399 18.0446 13.9555 16.768 13.3547 15.5454C13.3447 15.5249 13.3395 15.5025 13.3395 15.4797C13.3395 15.457 13.3447 15.4345 13.3547 15.4141L15.0008 13.461C15.0126 13.4465 15.0236 13.4314 15.0336 13.4157C15.1331 13.2637 15.1932 13.0894 15.2085 12.9084C15.2238 12.7274 15.1937 12.5454 15.1211 12.379L13.4789 8.69458C13.3857 8.47708 13.2244 8.2957 13.0193 8.17766C12.8142 8.05961 12.5763 8.01127 12.3414 8.03989C11.3205 8.1741 10.3834 8.67547 9.70518 9.45028C9.02699 10.2251 8.65412 11.2203 8.65626 12.25C8.65626 18.3672 13.6328 23.3438 19.75 23.3438C20.7797 23.3458 21.7748 22.9728 22.5496 22.2947C23.3244 21.6165 23.8258 20.6795 23.9602 19.6586C23.9887 19.4248 23.941 19.188 23.8242 18.9835C23.7074 18.779 23.5276 18.6176 23.3117 18.5235ZM19.75 22.4063C14.15 22.4063 9.59376 17.85 9.59376 12.25C9.59115 11.4484 9.88048 10.6733 10.4077 10.0694C10.9349 9.46558 11.664 9.07433 12.4586 8.96879H12.4766C12.5081 8.96938 12.5386 8.97947 12.5643 8.99773C12.5899 9.01599 12.6095 9.04158 12.6203 9.07114L14.2688 12.7516C14.2782 12.7721 14.283 12.7943 14.283 12.8168C14.283 12.8394 14.2782 12.8616 14.2688 12.8821L12.6195 14.8399C12.6072 14.8539 12.596 14.8688 12.5859 14.8844C12.4827 15.042 12.422 15.2235 12.4095 15.4114C12.3971 15.5993 12.4333 15.7873 12.5149 15.9571C13.2078 17.3758 14.6375 18.7946 16.0719 19.4875C16.2427 19.5686 16.4315 19.604 16.6201 19.5903C16.8086 19.5766 16.9904 19.5143 17.1477 19.4094C17.1625 19.3993 17.1774 19.3883 17.1914 19.3766L19.1195 17.736C19.1386 17.7257 19.1596 17.7198 19.1812 17.7184C19.2028 17.7171 19.2244 17.7204 19.2445 17.7282L22.9359 19.3821C22.9661 19.3949 22.9915 19.4169 23.0084 19.445C23.0254 19.473 23.0331 19.5057 23.0305 19.5383C22.9255 20.3333 22.5346 21.0629 21.9309 21.5907C21.3272 22.1185 20.5519 22.4084 19.75 22.4063Z" fill="#797979"/>
</svg>
