<svg width="32" height="32" viewBox="0 0 32 32" fill="none" xmlns="http://www.w3.org/2000/svg">
<circle cx="16" cy="16" r="16" fill="#D9D9D9"/>
<path d="M22.875 9.90625H9.12502C8.83494 9.90625 8.55674 10.0215 8.35162 10.2266C8.1465 10.4317 8.03127 10.7099 8.03127 11V23.5C8.03014 23.7085 8.08916 23.913 8.20125 24.0888C8.31335 24.2646 8.47377 24.4044 8.6633 24.4914C8.80799 24.5585 8.96552 24.5934 9.12502 24.5938C9.38268 24.5939 9.63197 24.5022 9.82814 24.3352L9.83517 24.3289L12.3461 22.1281C12.3742 22.1056 12.4093 22.0934 12.4453 22.0938H22.875C23.1651 22.0938 23.4433 21.9785 23.6484 21.7734C23.8535 21.5683 23.9688 21.2901 23.9688 21V11C23.9688 10.7099 23.8535 10.4317 23.6484 10.2266C23.4433 10.0215 23.1651 9.90625 22.875 9.90625ZM23.0313 21C23.0313 21.0414 23.0148 21.0812 22.9855 21.1105C22.9562 21.1398 22.9165 21.1562 22.875 21.1562H12.4453C12.188 21.1566 11.939 21.2476 11.7422 21.4133L11.7352 21.4195L9.22267 23.6203C9.1998 23.6386 9.17225 23.6501 9.14315 23.6535C9.11405 23.6569 9.08458 23.6521 9.0581 23.6395C9.03162 23.627 9.00921 23.6073 8.99341 23.5826C8.97762 23.5579 8.96908 23.5293 8.96877 23.5V11C8.96877 10.9586 8.98523 10.9188 9.01453 10.8895C9.04383 10.8602 9.08358 10.8438 9.12502 10.8438H22.875C22.9165 10.8438 22.9562 10.8602 22.9855 10.8895C23.0148 10.9188 23.0313 10.9586 23.0313 11V21ZM18.9688 14.75C18.9688 14.8743 18.9194 14.9935 18.8315 15.0815C18.7436 15.1694 18.6243 15.2188 18.5 15.2188H13.5C13.3757 15.2188 13.2565 15.1694 13.1686 15.0815C13.0807 14.9935 13.0313 14.8743 13.0313 14.75C13.0313 14.6257 13.0807 14.5065 13.1686 14.4185C13.2565 14.3306 13.3757 14.2812 13.5 14.2812H18.5C18.6243 14.2812 18.7436 14.3306 18.8315 14.4185C18.9194 14.5065 18.9688 14.6257 18.9688 14.75ZM18.9688 17.25C18.9688 17.3743 18.9194 17.4935 18.8315 17.5815C18.7436 17.6694 18.6243 17.7188 18.5 17.7188H13.5C13.3757 17.7188 13.2565 17.6694 13.1686 17.5815C13.0807 17.4935 13.0313 17.3743 13.0313 17.25C13.0313 17.1257 13.0807 17.0065 13.1686 16.9185C13.2565 16.8306 13.3757 16.7812 13.5 16.7812H18.5C18.6243 16.7812 18.7436 16.8306 18.8315 16.9185C18.9194 17.0065 18.9688 17.1257 18.9688 17.25Z" fill="#797979"/>
</svg>
