<svg width="32" height="32" viewBox="0 0 32 32" fill="none" xmlns="http://www.w3.org/2000/svg">
<circle cx="16" cy="16" r="16" fill="#D9D9D9"/>
<path fill-rule="evenodd" clip-rule="evenodd" d="M23.8791 10.5133C23.9583 10.6335 23.9935 10.7773 23.979 10.9205C23.9644 11.0637 23.9008 11.1974 23.7991 11.2992L16.1382 18.9592C16.0599 19.0375 15.9621 19.0936 15.8549 19.1217L12.6641 19.955C12.5586 19.9825 12.4478 19.982 12.3426 19.9534C12.2374 19.9248 12.1415 19.8692 12.0644 19.7922C11.9873 19.7151 11.9318 19.6192 11.9032 19.514C11.8746 19.4088 11.8741 19.298 11.9016 19.1925L12.7349 16.0025C12.7592 15.9067 12.8051 15.8178 12.8691 15.7425L20.5582 8.05833C20.6754 7.94129 20.8343 7.87555 20.9999 7.87555C21.1655 7.87555 21.3244 7.94129 21.4416 8.05833L23.7991 10.415C23.829 10.445 23.8558 10.4779 23.8791 10.5133ZM22.4732 10.8567L20.9999 9.38417L13.9016 16.4825L13.3807 18.4767L15.3749 17.9558L22.4732 10.8567Z" fill="#797979"/>
<path d="M22.3676 20.3C22.5954 18.3533 22.6681 16.3916 22.5851 14.4333C22.5833 14.3872 22.591 14.3412 22.6078 14.2982C22.6246 14.2552 22.6501 14.2161 22.6826 14.1833L23.5026 13.3633C23.525 13.3408 23.5535 13.3252 23.5845 13.3185C23.6156 13.3117 23.6479 13.314 23.6777 13.3252C23.7074 13.3364 23.7333 13.3559 23.7522 13.3815C23.7711 13.407 23.7823 13.4375 23.7843 13.4692C23.9386 15.7952 23.8801 18.1305 23.6093 20.4458C23.4126 22.1308 22.0593 23.4517 20.3818 23.6392C17.4696 23.9617 14.5307 23.9617 11.6185 23.6392C9.94179 23.4517 8.58763 22.1308 8.39096 20.4458C8.04546 17.492 8.04546 14.508 8.39096 11.5542C8.58763 9.86916 9.94096 8.54833 11.6185 8.36083C13.8288 8.11573 16.0557 8.05636 18.276 8.18333C18.3077 8.18561 18.3382 8.19695 18.3637 8.21601C18.3892 8.23506 18.4088 8.26104 18.42 8.29085C18.4312 8.32066 18.4337 8.35307 18.427 8.38423C18.4204 8.41539 18.405 8.444 18.3826 8.46666L17.5551 9.29333C17.5227 9.32562 17.484 9.35093 17.4415 9.3677C17.3989 9.38447 17.3534 9.39234 17.3076 9.39083C15.4549 9.32785 13.6001 9.39887 11.7576 9.60333C11.2192 9.66292 10.7167 9.90227 10.3311 10.2827C9.94551 10.6631 9.69944 11.1625 9.63263 11.7C9.2985 14.5569 9.2985 17.4431 9.63263 20.3C9.69944 20.8375 9.94551 21.3369 10.3311 21.7173C10.7167 22.0977 11.2192 22.3371 11.7576 22.3967C14.5535 22.7092 17.4468 22.7092 20.2435 22.3967C20.7818 22.3371 21.2844 22.0977 21.67 21.7173C22.0556 21.3369 22.3008 20.8375 22.3676 20.3Z" fill="#797979"/>
</svg>
