<svg width="32" height="32" viewBox="0 0 32 32" fill="none" xmlns="http://www.w3.org/2000/svg">
<circle cx="16" cy="16" r="16" fill="#D9D9D9"/>
<path d="M22.6666 16.0417C22.6509 14.7713 22.2726 13.5318 21.5761 12.4692C20.8797 11.4066 19.894 10.5651 18.7354 10.0439C17.5767 9.52264 16.2932 9.34336 15.036 9.52716C13.7788 9.71096 12.6004 10.2502 11.6394 11.0813C10.6784 11.9124 9.97494 13.0008 9.61182 14.2183C9.2487 15.4359 9.24105 16.7318 9.58978 17.9535C9.93851 19.1753 10.6291 20.2719 11.5802 21.1143C12.5313 21.9567 13.7033 22.5098 14.9582 22.7084V17.9834H13.2916V16.0417H14.9582V14.5667C14.9197 14.2238 14.9569 13.8765 15.0672 13.5495C15.1775 13.2224 15.3582 12.9236 15.5966 12.6741C15.835 12.4245 16.1253 12.2303 16.447 12.1052C16.7687 11.9801 17.1139 11.9272 17.4582 11.9501C17.9581 11.9569 18.4567 12.0015 18.9499 12.0834V13.7501H18.1166C17.9729 13.7319 17.8269 13.7463 17.6896 13.7922C17.5522 13.8381 17.4268 13.9142 17.3228 14.015C17.2188 14.1158 17.1388 14.2387 17.0887 14.3746C17.0386 14.5105 17.0196 14.6559 17.0332 14.8001V16.0584H18.8832L18.5832 18.0001H17.0416V22.6667C18.6165 22.4176 20.05 21.6123 21.082 20.3968C22.114 19.1813 22.6762 17.6362 22.6666 16.0417Z" fill="#797979"/>
</svg>
