<svg width="19" height="19" viewBox="0 0 19 19" fill="none" xmlns="http://www.w3.org/2000/svg">
<path d="M13.2732 18H5.75429C3.13182 18 1 15.8682 1 13.2534V5.74662C1 3.12838 3.13182 1 5.75429 1H13.2732C15.8956 1 18.0275 3.12838 18.0275 5.74662V13.2534C18.0275 15.8682 15.8923 18 13.2732 18ZM5.75429 2.375C3.89318 2.375 2.37722 3.88851 2.37722 5.74662V13.2534C2.37722 15.1115 3.89318 16.625 5.75429 16.625H13.2732C15.1343 16.625 16.6502 15.1115 16.6502 13.2534V5.74662C16.6502 3.88851 15.1343 2.375 13.2732 2.375H5.75429Z" fill="#A0C49D" stroke="#A0C49D" stroke-width="0.5"/>
<path d="M9.5134 13.9723C7.0432 13.9723 5.0332 11.9656 5.0332 9.49937C5.0332 7.03315 7.0432 5.0264 9.5134 5.0264C11.9836 5.0264 13.9936 7.03315 13.9936 9.49937C13.9936 11.9656 11.9836 13.9723 9.5134 13.9723ZM9.5134 6.4014C7.80456 6.4014 6.41042 7.78991 6.41042 9.49937C6.41042 11.2088 7.80118 12.5973 9.5134 12.5973C11.2222 12.5973 12.6164 11.2088 12.6164 9.49937C12.6164 7.78991 11.2222 6.4014 9.5134 6.4014Z" fill="#A0C49D" stroke="#A0C49D" stroke-width="0.5"/>
<path d="M14.1814 5.53737C13.7957 5.53737 13.4844 5.22656 13.4844 4.84142C13.4844 4.45629 13.7957 4.14548 14.1814 4.14548C14.5672 4.14548 14.8785 4.45629 14.8785 4.84142C14.8785 5.22656 14.5672 5.53737 14.1814 5.53737Z" fill="#A0C49D" stroke="#A0C49D" stroke-width="0.5"/>
</svg>
