<svg width="32" height="32" viewBox="0 0 32 32" fill="none" xmlns="http://www.w3.org/2000/svg">
<circle cx="16" cy="16" r="16" fill="#D9D9D9"/>
<path d="M16.0001 13.3966C14.5665 13.3966 13.3966 14.5665 13.3966 16.0001C13.3966 17.4337 14.5665 18.6036 16.0001 18.6036C17.4337 18.6036 18.6036 17.4337 18.6036 16.0001C18.6036 14.5665 17.4337 13.3966 16.0001 13.3966ZM23.8087 16.0001C23.8087 14.922 23.8185 13.8536 23.7579 12.7774C23.6974 11.5274 23.4122 10.4181 22.4981 9.504C21.5821 8.58798 20.4747 8.30478 19.2247 8.24423C18.1466 8.18369 17.0782 8.19345 16.002 8.19345C14.9239 8.19345 13.8556 8.18369 12.7794 8.24423C11.5294 8.30478 10.42 8.58994 9.50595 9.504C8.58994 10.42 8.30673 11.5274 8.24619 12.7774C8.18564 13.8556 8.19541 14.9239 8.19541 16.0001C8.19541 17.0763 8.18564 18.1466 8.24619 19.2227C8.30673 20.4727 8.59189 21.5821 9.50595 22.4962C10.422 23.4122 11.5294 23.6954 12.7794 23.756C13.8575 23.8165 14.9259 23.8067 16.002 23.8067C17.0802 23.8067 18.1485 23.8165 19.2247 23.756C20.4747 23.6954 21.5841 23.4102 22.4981 22.4962C23.4142 21.5802 23.6974 20.4727 23.7579 19.2227C23.8204 18.1466 23.8087 17.0782 23.8087 16.0001ZM16.0001 20.006C13.7833 20.006 11.9942 18.2169 11.9942 16.0001C11.9942 13.7833 13.7833 11.9942 16.0001 11.9942C18.2169 11.9942 20.006 13.7833 20.006 16.0001C20.006 18.2169 18.2169 20.006 16.0001 20.006ZM20.17 12.7657C19.6524 12.7657 19.2345 12.3477 19.2345 11.8302C19.2345 11.3126 19.6524 10.8946 20.17 10.8946C20.6876 10.8946 21.1056 11.3126 21.1056 11.8302C21.1057 11.9531 21.0816 12.0748 21.0347 12.1884C20.9877 12.3019 20.9188 12.4051 20.8319 12.492C20.745 12.579 20.6418 12.6479 20.5282 12.6948C20.4146 12.7418 20.2929 12.7659 20.17 12.7657Z" fill="#797979"/>
</svg>
