<svg width="20" height="20" viewBox="0 0 20 20" fill="none" xmlns="http://www.w3.org/2000/svg">
<path d="M10 0.833332C11.9891 0.833332 13.8968 1.62351 15.3033 3.03003C16.7098 4.43655 17.5 6.34421 17.5 8.33333C17.5 11.4383 15.1333 14.6917 10.5 18.1667C10.3558 18.2748 10.1803 18.3333 10 18.3333C9.81969 18.3333 9.64425 18.2748 9.5 18.1667C4.86667 14.6917 2.5 11.4383 2.5 8.33333C2.5 6.34421 3.29018 4.43655 4.6967 3.03003C6.10322 1.62351 8.01088 0.833332 10 0.833332ZM10 2.5C8.4529 2.5 6.96917 3.11458 5.87521 4.20854C4.78125 5.3025 4.16667 6.78624 4.16667 8.33333C4.16667 10.5917 5.93167 13.1967 9.54 16.0883L10 16.4517L10.46 16.0883C14.0683 13.1967 15.8333 10.5917 15.8333 8.33333C15.8333 6.78624 15.2188 5.3025 14.1248 4.20854C13.0308 3.11458 11.5471 2.5 10 2.5ZM10 6.66667C10.442 6.66667 10.866 6.84226 11.1785 7.15482C11.4911 7.46738 11.6667 7.8913 11.6667 8.33333C11.6667 8.77536 11.4911 9.19928 11.1785 9.51184C10.866 9.8244 10.442 10 10 10C9.55797 10 9.13405 9.8244 8.82149 9.51184C8.50893 9.19928 8.33333 8.77536 8.33333 8.33333C8.33333 7.8913 8.50893 7.46738 8.82149 7.15482C9.13405 6.84226 9.55797 6.66667 10 6.66667Z" fill="#797979" fill-opacity="0.5"/>
</svg>
