<svg width="32" height="32" viewBox="0 0 32 32" fill="none" xmlns="http://www.w3.org/2000/svg">
<circle cx="16" cy="16" r="16" fill="#D9D9D9"/>
<path d="M16 6.83331C17.9891 6.83331 19.8968 7.62349 21.3033 9.03001C22.7098 10.4365 23.5 12.3442 23.5 14.3333C23.5 17.4383 21.1333 20.6916 16.5 24.1666C16.3558 24.2748 16.1803 24.3333 16 24.3333C15.8197 24.3333 15.6442 24.2748 15.5 24.1666C10.8667 20.6916 8.5 17.4383 8.5 14.3333C8.5 12.3442 9.29018 10.4365 10.6967 9.03001C12.1032 7.62349 14.0109 6.83331 16 6.83331ZM16 8.49998C14.4529 8.49998 12.9692 9.11456 11.8752 10.2085C10.7812 11.3025 10.1667 12.7862 10.1667 14.3333C10.1667 16.5916 11.9317 19.1966 15.54 22.0883L16 22.4516L16.46 22.0883C20.0683 19.1966 21.8333 16.5916 21.8333 14.3333C21.8333 12.7862 21.2188 11.3025 20.1248 10.2085C19.0308 9.11456 17.5471 8.49998 16 8.49998ZM16 12.6666C16.442 12.6666 16.866 12.8422 17.1785 13.1548C17.4911 13.4674 17.6667 13.8913 17.6667 14.3333C17.6667 14.7753 17.4911 15.1993 17.1785 15.5118C16.866 15.8244 16.442 16 16 16C15.558 16 15.134 15.8244 14.8215 15.5118C14.5089 15.1993 14.3333 14.7753 14.3333 14.3333C14.3333 13.8913 14.5089 13.4674 14.8215 13.1548C15.134 12.8422 15.558 12.6666 16 12.6666Z" fill="#797979"/>
</svg>
