<svg width="16" height="16" viewBox="0 0 16 16" fill="none" xmlns="http://www.w3.org/2000/svg">
<circle cx="8" cy="8" r="8" fill="#A0C49D"/>
<path d="M6.92788 9.64311L5.40905 8.17135C5.32721 8.09204 5.2162 8.04749 5.10046 8.04749C4.98472 8.04749 4.87372 8.09204 4.79188 8.17135C4.71004 8.25065 4.66406 8.35821 4.66406 8.47037C4.66406 8.5259 4.67535 8.58089 4.69728 8.63219C4.71921 8.6835 4.75136 8.73011 4.79188 8.76938L6.62149 10.5423C6.7922 10.7077 7.06795 10.7077 7.23866 10.5423L11.8696 6.0549C11.9514 5.9756 11.9974 5.86804 11.9974 5.75588C11.9974 5.64373 11.9514 5.53617 11.8696 5.45686C11.7877 5.37756 11.6767 5.33301 11.561 5.33301C11.4453 5.33301 11.3343 5.37756 11.2524 5.45686L6.92788 9.64311Z" fill="white" stroke="white"/>
</svg>
