<svg width="32" height="32" viewBox="0 0 32 32" fill="none" xmlns="http://www.w3.org/2000/svg">
<circle cx="16" cy="16" r="16" fill="#D9D9D9"/>
<path d="M19.8332 10.85C19.2636 10.1997 18.9496 9.36453 18.9499 8.5H16.3749V18.8333C16.355 19.3925 16.1189 19.9222 15.7164 20.3108C15.3138 20.6994 14.7761 20.9166 14.2166 20.9167C13.0332 20.9167 12.0499 19.95 12.0499 18.75C12.0499 17.3167 13.4332 16.2417 14.8582 16.6833V14.05C11.9832 13.6667 9.46655 15.9 9.46655 18.75C9.46655 21.525 11.7666 23.5 14.2082 23.5C16.8249 23.5 18.9499 21.375 18.9499 18.75V13.5083C19.9941 14.2582 21.2477 14.6605 22.5332 14.6583V12.0833C22.5332 12.0833 20.9666 12.1583 19.8332 10.85Z" fill="#797979"/>
</svg>
