<svg width="32" height="32" viewBox="0 0 32 32" fill="none" xmlns="http://www.w3.org/2000/svg">
<circle cx="16" cy="16" r="16" fill="#D9D9D9"/>
<path d="M24.3334 10.8333C23.707 11.105 23.0446 11.2847 22.3667 11.3666C23.0819 10.9394 23.6178 10.2672 23.8751 9.47493C23.203 9.87498 22.4674 10.1568 21.7001 10.3083C21.1872 9.75207 20.5042 9.38184 19.7583 9.25564C19.0123 9.12944 18.2455 9.2544 17.5782 9.61092C16.9109 9.96745 16.3809 10.5354 16.0711 11.2256C15.7614 11.9159 15.6895 12.6894 15.8667 13.4249C14.5079 13.3562 13.1788 13.0024 11.9656 12.3865C10.7525 11.7706 9.68245 10.9063 8.82508 9.84993C8.52436 10.3751 8.36635 10.9698 8.36675 11.5749C8.36568 12.1369 8.5036 12.6904 8.76821 13.1862C9.03283 13.682 9.41593 14.1047 9.88341 14.4166C9.34006 14.4018 8.80832 14.256 8.33341 13.9916V14.0333C8.33749 14.8207 8.61341 15.5825 9.11451 16.1899C9.61561 16.7973 10.3111 17.213 11.0834 17.3666C10.7861 17.4571 10.4775 17.5048 10.1667 17.5083C9.95166 17.5058 9.7371 17.4862 9.52508 17.4499C9.74501 18.1273 10.1706 18.7192 10.7426 19.1434C11.3147 19.5676 12.0047 19.8029 12.7167 19.8166C11.5144 20.7627 10.03 21.279 8.50008 21.2833C8.22153 21.2842 7.94319 21.2675 7.66675 21.2333C9.22877 22.2418 11.0491 22.7772 12.9084 22.7749C14.1915 22.7883 15.4644 22.5458 16.6527 22.0617C17.841 21.5775 18.9209 20.8615 19.8294 19.9553C20.7379 19.0492 21.4567 17.9711 21.9439 16.784C22.431 15.5969 22.6768 14.3247 22.6667 13.0416V12.5999C23.3207 12.1123 23.8846 11.5145 24.3334 10.8333Z" fill="#797979"/>
</svg>
