<svg width="32" height="32" viewBox="0 0 32 32" fill="none" xmlns="http://www.w3.org/2000/svg">
<circle cx="16" cy="16" r="16" fill="#D9D9D9"/>
<path d="M17.25 15.375H14.75V12.875H13.5V15.375H11V16.625H13.5V19.125H14.75V16.625H17.25V15.375Z" fill="#797979"/>
<path d="M19.125 22.25H8.5C8.16858 22.2497 7.85083 22.1179 7.61648 21.8835C7.38213 21.6492 7.25033 21.3314 7.25 21V11C7.25033 10.6686 7.38213 10.3508 7.61648 10.1165C7.85083 9.88213 8.16858 9.75033 8.5 9.75H19.125C19.4564 9.75033 19.7742 9.88213 20.0085 10.1165C20.2429 10.3508 20.3747 10.6686 20.375 11V13.5356L23.7619 11.1169C23.8553 11.0502 23.9653 11.0105 24.0797 11.0022C24.1942 10.9939 24.3088 11.0173 24.4108 11.0697C24.5129 11.1222 24.5985 11.2018 24.6584 11.2998C24.7182 11.3977 24.7499 11.5102 24.75 11.625V20.375C24.75 20.4898 24.7184 20.6024 24.6586 20.7005C24.5988 20.7985 24.5132 20.8782 24.4111 20.9307C24.309 20.9833 24.1944 21.0067 24.0799 20.9984C23.9654 20.9901 23.8553 20.9505 23.7619 20.8837L20.375 18.465V21C20.3747 21.3314 20.2429 21.6492 20.0085 21.8835C19.7742 22.1179 19.4564 22.2497 19.125 22.25ZM8.5 11V21.0006L19.125 21V17.25C19.125 17.1352 19.1566 17.0226 19.2164 16.9245C19.2762 16.8265 19.3618 16.7468 19.4639 16.6943C19.566 16.6417 19.6806 16.6183 19.7951 16.6266C19.9096 16.6349 20.0197 16.6745 20.1131 16.7413L23.5 19.16V12.84L20.1131 15.2587C20.0197 15.3255 19.9096 15.3651 19.7951 15.3734C19.6806 15.3817 19.566 15.3583 19.4639 15.3057C19.3618 15.2532 19.2762 15.1735 19.2164 15.0755C19.1566 14.9774 19.125 14.8648 19.125 14.75V11H8.5Z" fill="#797979"/>
</svg>
