<svg width="32" height="32" viewBox="0 0 32 32" fill="none" xmlns="http://www.w3.org/2000/svg">
<circle cx="16" cy="16" r="16" fill="#D9D9D9"/>
<g clip-path="url(#clip0_164_1721)">
<path fill-rule="evenodd" clip-rule="evenodd" d="M16.0001 9.33325C16.7126 9.33325 17.4434 9.35159 18.1517 9.38159L18.9884 9.42159L19.7892 9.46909L20.5392 9.51992L21.2242 9.57325C21.9676 9.63015 22.6671 9.94737 23.1997 10.4691C23.7323 10.9909 24.0638 11.6837 24.1359 12.4258L24.1692 12.7799L24.2317 13.5383C24.2901 14.3241 24.3334 15.1808 24.3334 15.9999C24.3334 16.8191 24.2901 17.6758 24.2317 18.4616L24.1692 19.2199C24.1584 19.3416 24.1476 19.4591 24.1359 19.5741C24.0637 20.3163 23.7321 21.0092 23.1994 21.531C22.6666 22.0527 21.9669 22.3699 21.2234 22.4266L20.5401 22.4791L19.7901 22.5308L18.9884 22.5783L18.1517 22.6183C17.4349 22.6494 16.7176 22.6655 16.0001 22.6666C15.2826 22.6655 14.5652 22.6494 13.8484 22.6183L13.0117 22.5783L12.2109 22.5308L11.4609 22.4791L10.7759 22.4266C10.0325 22.3697 9.33304 22.0525 8.80048 21.5307C8.26791 21.009 7.93639 20.3161 7.86425 19.5741L7.83091 19.2199L7.76841 18.4616C7.7047 17.6425 7.67078 16.8214 7.66675 15.9999C7.66675 15.1808 7.71008 14.3241 7.76841 13.5383L7.83091 12.7799C7.84175 12.6583 7.85258 12.5408 7.86425 12.4258C7.93637 11.6838 8.26776 10.9911 8.80016 10.4694C9.33255 9.94764 10.0319 9.63034 10.7751 9.57325L11.4592 9.51992L12.2092 9.46909L13.0109 9.42159L13.8476 9.38159C14.5647 9.35045 15.2823 9.33433 16.0001 9.33325ZM14.3334 13.9791V18.0208C14.3334 18.4058 14.7501 18.6458 15.0834 18.4541L18.5834 16.4333C18.6596 16.3894 18.7228 16.3263 18.7668 16.2502C18.8108 16.1741 18.834 16.0878 18.834 15.9999C18.834 15.912 18.8108 15.8257 18.7668 15.7496C18.7228 15.6736 18.6596 15.6104 18.5834 15.5666L15.0834 13.5466C15.0074 13.5027 14.9211 13.4796 14.8333 13.4796C14.7455 13.4796 14.6593 13.5027 14.5833 13.5467C14.5073 13.5906 14.4441 13.6538 14.4003 13.7298C14.3564 13.8059 14.3334 13.8921 14.3334 13.9799V13.9791Z" fill="#797979"/>
</g>
<defs>
<clipPath id="clip0_164_1721">
<rect width="20" height="20" fill="white" transform="translate(6 6)"/>
</clipPath>
</defs>
</svg>
