<svg width="32" height="32" viewBox="0 0 32 32" fill="none" xmlns="http://www.w3.org/2000/svg">
<circle cx="16" cy="16" r="16" fill="#D9D9D9"/>
<path d="M22.2541 20.9525V14.635C22.522 14.6253 22.7796 14.5291 22.9884 14.3609C23.1972 14.1926 23.3459 13.9614 23.4124 13.7017C23.4869 13.4367 23.4698 13.1544 23.3639 12.9004C23.2581 12.6464 23.0696 12.4354 22.8291 12.3017L16.6208 8.71836C16.4312 8.61185 16.2174 8.55591 15.9999 8.55591C15.7825 8.55591 15.5687 8.61185 15.3791 8.71836L9.17078 12.3017C8.93024 12.4354 8.74182 12.6464 8.63597 12.9004C8.53012 13.1544 8.51303 13.4367 8.58744 13.7017C8.65573 13.9698 8.8118 14.2074 9.03079 14.3766C9.24978 14.5457 9.51908 14.6367 9.79578 14.635H9.90411V20.9434H9.80411C9.47259 20.9434 9.15465 21.0751 8.92023 21.3095C8.68581 21.5439 8.55411 21.8618 8.55411 22.1934C8.55411 22.5249 8.68581 22.8428 8.92023 23.0772C9.15465 23.3117 9.47259 23.4434 9.80411 23.4434H22.1958C22.5089 23.4249 22.8037 23.2893 23.0215 23.0636C23.2394 22.8378 23.3644 22.5384 23.3717 22.2248C23.3791 21.9112 23.2682 21.6063 23.0612 21.3706C22.8542 21.1349 22.5661 20.9857 22.2541 20.9525ZM9.79578 13.8017C9.70393 13.8005 9.61499 13.7693 9.54253 13.7129C9.47006 13.6564 9.41806 13.5778 9.39445 13.4891C9.37084 13.4003 9.37693 13.3062 9.41177 13.2213C9.44662 13.1363 9.50831 13.065 9.58744 13.0184L15.7958 9.4442C15.8574 9.407 15.928 9.38734 15.9999 9.38734C16.0719 9.38734 16.1425 9.407 16.2041 9.4442L22.4166 13.0184C22.4991 13.0628 22.5642 13.1337 22.6014 13.2197C22.6386 13.3057 22.6457 13.4017 22.6216 13.4923C22.5975 13.5828 22.5437 13.6626 22.4687 13.7187C22.3937 13.7749 22.3019 13.8041 22.2083 13.8017H9.79578ZM21.4208 14.635V20.9434H18.4166V14.635H21.4208ZM17.5791 14.635V20.9434H14.5708V14.635H17.5791ZM13.7374 14.635V20.9434H10.7374V14.635H13.7374ZM22.1958 22.61H9.80411C9.6936 22.61 9.58762 22.5661 9.50948 22.488C9.43134 22.4099 9.38744 22.3039 9.38744 22.1934C9.38744 22.0829 9.43134 21.9769 9.50948 21.8987C9.58762 21.8206 9.6936 21.7767 9.80411 21.7767H22.1958C22.3063 21.7767 22.4123 21.8206 22.4904 21.8987C22.5685 21.9769 22.6124 22.0829 22.6124 22.1934C22.6124 22.3039 22.5685 22.4099 22.4904 22.488C22.4123 22.5661 22.3063 22.61 22.1958 22.61Z" fill="#797979"/>
</svg>
