<svg width="52" height="52" viewBox="0 0 52 52" fill="none" xmlns="http://www.w3.org/2000/svg">
<circle cx="26" cy="26" r="26" fill="#D9D9D9"/>
<path d="M12.6667 32.6667H39.3334V35.3333H12.6667V32.6667ZM14.2 27.2667L15.3334 25.2933L16.4667 27.2667L18.2 26.2667L17.0667 24.2933H19.3334V22.2933H17.0667L18.2 20.3333L16.4667 19.3333L15.3334 21.2933L14.2 19.3333L12.4667 20.3333L13.6 22.2933H11.3334V24.2933H13.6L12.4667 26.2667L14.2 27.2667ZM23.1334 26.2667L24.8667 27.2667L26 25.2933L27.1334 27.2667L28.8667 26.2667L27.7334 24.2933H30V22.2933H27.7334L28.8667 20.3333L27.1334 19.3333L26 21.2933L24.8667 19.3333L23.1334 20.3333L24.2667 22.2933H22V24.2933H24.2667L23.1334 26.2667ZM40.6667 22.2933H38.4L39.5334 20.3333L37.8 19.3333L36.6667 21.2933L35.5334 19.3333L33.8 20.3333L34.9334 22.2933H32.6667V24.2933H34.9334L33.8 26.2667L35.5334 27.2667L36.6667 25.2933L37.8 27.2667L39.5334 26.2667L38.4 24.2933H40.6667V22.2933Z" fill="#797979"/>
</svg>
