<svg width="52" height="52" viewBox="0 0 52 52" fill="none" xmlns="http://www.w3.org/2000/svg">
<circle cx="26" cy="26" r="26" fill="#D9D9D9"/>
<g clip-path="url(#clip0_552_149)">
<path d="M39 16C39.2652 16 39.5196 16.1054 39.7071 16.2929C39.8946 16.4804 40 16.7348 40 17V35C40 35.2652 39.8946 35.5196 39.7071 35.7071C39.5196 35.8946 39.2652 36 39 36H13C12.7348 36 12.4804 35.8946 12.2929 35.7071C12.1054 35.5196 12 35.2652 12 35V17C12 16.7348 12.1054 16.4804 12.2929 16.2929C12.4804 16.1054 12.7348 16 13 16H39ZM13 14C12.2044 14 11.4413 14.3161 10.8787 14.8787C10.3161 15.4413 10 16.2044 10 17V35C10 35.7956 10.3161 36.5587 10.8787 37.1213C11.4413 37.6839 12.2044 38 13 38H39C39.7956 38 40.5587 37.6839 41.1213 37.1213C41.6839 36.5587 42 35.7956 42 35V17C42 16.2044 41.6839 15.4413 41.1213 14.8787C40.5587 14.3161 39.7956 14 39 14H13Z" fill="#797979"/>
<path d="M16 21C16 20.7348 16.1054 20.4804 16.2929 20.2929C16.4804 20.1054 16.7348 20 17 20H35C35.2652 20 35.5196 20.1054 35.7071 20.2929C35.8946 20.4804 36 20.7348 36 21C36 21.2652 35.8946 21.5196 35.7071 21.7071C35.5196 21.8946 35.2652 22 35 22H17C16.7348 22 16.4804 21.8946 16.2929 21.7071C16.1054 21.5196 16 21.2652 16 21ZM16 26C16 25.7348 16.1054 25.4804 16.2929 25.2929C16.4804 25.1054 16.7348 25 17 25H35C35.2652 25 35.5196 25.1054 35.7071 25.2929C35.8946 25.4804 36 25.7348 36 26C36 26.2652 35.8946 26.5196 35.7071 26.7071C35.5196 26.8946 35.2652 27 35 27H17C16.7348 27 16.4804 26.8946 16.2929 26.7071C16.1054 26.5196 16 26.2652 16 26ZM16 31C16 30.7348 16.1054 30.4804 16.2929 30.2929C16.4804 30.1054 16.7348 30 17 30H29C29.2652 30 29.5196 30.1054 29.7071 30.2929C29.8946 30.4804 30 30.7348 30 31C30 31.2652 29.8946 31.5196 29.7071 31.7071C29.5196 31.8946 29.2652 32 29 32H17C16.7348 32 16.4804 31.8946 16.2929 31.7071C16.1054 31.5196 16 31.2652 16 31Z" fill="#797979"/>
</g>
<defs>
<clipPath id="clip0_552_149">
<rect width="32" height="32" fill="white" transform="translate(10 10)"/>
</clipPath>
</defs>
</svg>
