<svg width="32" height="32" viewBox="0 0 32 32" fill="none" xmlns="http://www.w3.org/2000/svg">
<circle cx="16" cy="16" r="16" fill="#D9D9D9"/>
<path d="M21 12C21 12.2652 20.8946 12.5196 20.7071 12.7071C20.5196 12.8946 20.2652 13 20 13C19.7348 13 19.4804 12.8946 19.2929 12.7071C19.1054 12.5196 19 12.2652 19 12C19 11.7348 19.1054 11.4804 19.2929 11.2929C19.4804 11.1054 19.7348 11 20 11C20.2652 11 20.5196 11.1054 20.7071 11.2929C20.8946 11.4804 21 11.7348 21 12ZM18.5 8C15.424 8 13 10.424 13 13.5C13 13.897 13.04 14.296 13.122 14.675C13.18 14.945 13.114 15.179 12.98 15.313L8.44 19.853C8.30043 19.9924 8.18973 20.1579 8.11423 20.3402C8.03873 20.5224 7.99991 20.7177 8 20.915V22.5C8 22.8978 8.15804 23.2794 8.43934 23.5607C8.72064 23.842 9.10218 24 9.5 24H11.5C11.8978 24 12.2794 23.842 12.5607 23.5607C12.842 23.2794 13 22.8978 13 22.5V22H14C14.2652 22 14.5196 21.8946 14.7071 21.7071C14.8946 21.5196 15 21.2652 15 21V20H16C16.2652 20 16.5196 19.8946 16.7071 19.7071C16.8946 19.5196 17 19.2652 17 19V18.82C17.493 18.954 18.007 19 18.5 19C21.576 19 24 16.576 24 13.5C24 10.424 21.576 8 18.5 8ZM14 13.5C14 10.976 15.976 9 18.5 9C21.024 9 23 10.976 23 13.5C23 16.024 21.024 18 18.5 18C17.84 18 17.227 17.905 16.724 17.653C16.6478 17.6148 16.563 17.5967 16.4779 17.6005C16.3927 17.6043 16.3099 17.6298 16.2373 17.6746C16.1648 17.7194 16.1049 17.782 16.0633 17.8564C16.0218 17.9309 16 18.0147 16 18.1V19H15C14.7348 19 14.4804 19.1054 14.2929 19.2929C14.1054 19.4804 14 19.7348 14 20V21H13C12.7348 21 12.4804 21.1054 12.2929 21.2929C12.1054 21.4804 12 21.7348 12 22V22.5C12 22.6326 11.9473 22.7598 11.8536 22.8536C11.7598 22.9473 11.6326 23 11.5 23H9.5C9.36739 23 9.24022 22.9473 9.14645 22.8536C9.05268 22.7598 9 22.6326 9 22.5V20.914C9.00003 20.7816 9.05253 20.6547 9.146 20.561L13.687 16.02C14.119 15.588 14.209 14.976 14.099 14.464C14.0323 14.147 13.9991 13.8239 14 13.5Z" fill="#797979"/>
</svg>
