<svg width="32" height="32" viewBox="0 0 32 32" fill="none" xmlns="http://www.w3.org/2000/svg">
<circle cx="16" cy="16" r="16" fill="#D9D9D9"/>
<path d="M22.6667 11H25.1667V12.6667H24.3334V21.8333H25.1667V23.5H6.83337V21.8333H7.66671V12.6667H6.83337V11H9.33337V9.33333C9.33337 9.11232 9.42117 8.90036 9.57745 8.74408C9.73373 8.5878 9.94569 8.5 10.1667 8.5H21.8334C22.0544 8.5 22.2664 8.5878 22.4226 8.74408C22.5789 8.90036 22.6667 9.11232 22.6667 9.33333V11ZM22.6667 12.6667H9.33337V21.8333H11.8334V16H13.5V21.8333H15.1667V16H16.8334V21.8333H18.5V16H20.1667V21.8333H22.6667V12.6667ZM11 10.1667V11H21V10.1667H11Z" fill="#797979"/>
</svg>
