<svg width="32" height="32" viewBox="0 0 32 32" fill="none" xmlns="http://www.w3.org/2000/svg">
<circle cx="16" cy="16" r="16" fill="#D9D9D9"/>
<g clip-path="url(#clip0_157_2551)">
<path d="M25.2167 18.7778L22.95 16L25.1722 13.2778C25.2938 13.1289 25.3703 12.9484 25.393 12.7575C25.4156 12.5666 25.3834 12.3732 25.3 12.2C25.2156 12.0059 25.0755 11.8411 24.8976 11.7264C24.7196 11.6117 24.5117 11.5522 24.3 11.5556H7.07778C6.93843 11.5533 6.8 11.5786 6.67042 11.6299C6.54083 11.6812 6.42262 11.7575 6.32254 11.8545C6.22246 11.9515 6.14246 12.0673 6.08712 12.1952C6.03177 12.3231 6.00217 12.4606 6 12.6V19.4056C6.00584 19.686 6.1225 19.9528 6.32447 20.1474C6.52644 20.3421 6.79729 20.4489 7.07778 20.4444H24.3611C24.5657 20.4479 24.767 20.3927 24.9413 20.2854C25.1155 20.1781 25.2554 20.0231 25.3444 19.8389C25.4244 19.6677 25.4548 19.4776 25.4322 19.2901C25.4096 19.1025 25.335 18.9251 25.2167 18.7778ZM7.11111 19.3333V12.6667H24.2111L21.5222 15.9611L24.25 19.3333H7.11111Z" fill="#797979"/>
<path d="M11.2167 16.7499L9.40561 14.3333H8.77783V17.7666H9.40561V15.3555L11.2167 17.7666H11.8389V14.3333H11.2167V16.7499Z" fill="#797979"/>
<path d="M12.7667 17.7666H15.3556V17.1999H13.3945V16.3055H15.1667V15.7333H13.3945V14.9055H15.3556V14.3333H12.7667V17.7666Z" fill="#797979"/>
<path d="M19.6222 16.7944L18.8111 14.3333H18.1334L17.3167 16.7944L16.5834 14.3333H15.9L16.9889 17.7666H17.6056L18.4722 15.2166L19.3334 17.7666H19.9611L21.0445 14.3333H20.3611L19.6222 16.7944Z" fill="#797979"/>
</g>
<defs>
<clipPath id="clip0_157_2551">
<rect width="20" height="20" fill="white" transform="translate(6 6)"/>
</clipPath>
</defs>
</svg>
