<svg width="32" height="32" viewBox="0 0 32 32" fill="none" xmlns="http://www.w3.org/2000/svg">
<circle cx="16" cy="16" r="16" fill="#D9D9D9"/>
<path d="M7.66671 20.1666H24.3334V21.8333H7.66671V20.1666ZM8.62504 16.7916L9.33337 15.5583L10.0417 16.7916L11.125 16.1666L10.4167 14.9333H11.8334V13.6833H10.4167L11.125 12.4583L10.0417 11.8333L9.33337 13.0583L8.62504 11.8333L7.54171 12.4583L8.25004 13.6833H6.83337V14.9333H8.25004L7.54171 16.1666L8.62504 16.7916ZM14.2084 16.1666L15.2917 16.7916L16 15.5583L16.7084 16.7916L17.7917 16.1666L17.0834 14.9333H18.5V13.6833H17.0834L17.7917 12.4583L16.7084 11.8333L16 13.0583L15.2917 11.8333L14.2084 12.4583L14.9167 13.6833H13.5V14.9333H14.9167L14.2084 16.1666ZM25.1667 13.6833H23.75L24.4584 12.4583L23.375 11.8333L22.6667 13.0583L21.9584 11.8333L20.875 12.4583L21.5834 13.6833H20.1667V14.9333H21.5834L20.875 16.1666L21.9584 16.7916L22.6667 15.5583L23.375 16.7916L24.4584 16.1666L23.75 14.9333H25.1667V13.6833Z" fill="#797979"/>
</svg>
