<svg width="52" height="52" viewBox="0 0 52 52" fill="none" xmlns="http://www.w3.org/2000/svg">
<circle cx="26" cy="26" r="26" fill="#D9D9D9"/>
<path d="M12.6666 20.1667C12.6666 19.0616 13.1056 18.0018 13.887 17.2204C14.6684 16.439 15.7282 16 16.8333 16H35.1666C36.2717 16 37.3315 16.439 38.1129 17.2204C38.8943 18.0018 39.3333 19.0616 39.3333 20.1667V31.8333C39.3333 32.9384 38.8943 33.9982 38.1129 34.7796C37.3315 35.561 36.2717 36 35.1666 36H16.8333C15.7282 36 14.6684 35.561 13.887 34.7796C13.1056 33.9982 12.6666 32.9384 12.6666 31.8333V20.1667ZM16.8333 17.6667C16.1703 17.6667 15.5344 17.9301 15.0655 18.3989C14.5967 18.8677 14.3333 19.5036 14.3333 20.1667V22.3333H37.6666V20.1667C37.6666 19.5036 37.4032 18.8677 36.9344 18.3989C36.4655 17.9301 35.8297 17.6667 35.1666 17.6667H16.8333ZM14.3333 31.8333C14.3333 32.4964 14.5967 33.1323 15.0655 33.6011C15.5344 34.0699 16.1703 34.3333 16.8333 34.3333H35.1666C35.8297 34.3333 36.4655 34.0699 36.9344 33.6011C37.4032 33.1323 37.6666 32.4964 37.6666 31.8333V24H14.3333V31.8333ZM30.8333 29.6667C30.6123 29.6667 30.4003 29.7545 30.244 29.9107C30.0878 30.067 30 30.279 30 30.5C30 30.721 30.0878 30.933 30.244 31.0893C30.4003 31.2455 30.6123 31.3333 30.8333 31.3333H34.5C34.721 31.3333 34.9329 31.2455 35.0892 31.0893C35.2455 30.933 35.3333 30.721 35.3333 30.5C35.3333 30.279 35.2455 30.067 35.0892 29.9107C34.9329 29.7545 34.721 29.6667 34.5 29.6667H30.8333Z" fill="#797979"/>
</svg>
