<svg width="52" height="52" viewBox="0 0 52 52" fill="none" xmlns="http://www.w3.org/2000/svg">
<circle cx="26" cy="26" r="26" fill="#D9D9D9"/>
<path d="M38.0106 14C38.7413 14 39.3333 14.5933 39.3333 15.324V36.676C39.3309 37.0262 39.1908 37.3613 38.9433 37.609C38.6958 37.8568 38.3608 37.9972 38.0106 38H13.9893C13.6384 37.9996 13.302 37.86 13.0539 37.6117C12.8059 37.3635 12.6666 37.0269 12.6666 36.676V15.324C12.6691 14.9738 12.8092 14.6387 13.0566 14.391C13.3041 14.1432 13.6391 14.0028 13.9893 14H38.0106ZM36.6666 16.6667H15.3333V35.3333H36.6666V16.6667ZM34 30V32.6667H18V30H34ZM26 19.3333V27.3333H18V19.3333H26ZM34 24.6667V27.3333H28.6666V24.6667H34ZM23.3333 22H20.6666V24.6667H23.3333V22ZM34 19.3333V22H28.6666V19.3333H34Z" fill="#797979"/>
</svg>
