<svg width="32" height="32" viewBox="0 0 32 32" fill="none" xmlns="http://www.w3.org/2000/svg">
<circle cx="16" cy="16" r="16" fill="#D9D9D9"/>
<path d="M8.5 10.375V20.375C8.5 20.7065 8.6317 21.0245 8.86612 21.2589C9.10054 21.4933 9.41848 21.625 9.75 21.625H22.25C22.5815 21.625 22.8995 21.4933 23.1339 21.2589C23.3683 21.0245 23.5 20.7065 23.5 20.375V10.375H8.5ZM8.5 9.125H23.5C23.8315 9.125 24.1495 9.2567 24.3839 9.49112C24.6183 9.72554 24.75 10.0435 24.75 10.375V20.375C24.75 21.038 24.4866 21.6739 24.0178 22.1428C23.5489 22.6116 22.913 22.875 22.25 22.875H9.75C9.08696 22.875 8.45107 22.6116 7.98223 22.1428C7.51339 21.6739 7.25 21.038 7.25 20.375V10.375C7.25 10.0435 7.3817 9.72554 7.61612 9.49112C7.85054 9.2567 8.16848 9.125 8.5 9.125Z" fill="#797979"/>
<path d="M23.6562 10.375L18.8225 15.9C18.4705 16.3024 18.0366 16.6248 17.5498 16.8458C17.063 17.0667 16.5346 17.181 16 17.181C15.4654 17.181 14.937 17.0667 14.4502 16.8458C13.9634 16.6248 13.5295 16.3024 13.1775 15.9L8.34375 10.375H23.6562ZM10.005 10.375L14.1175 15.0763C14.3521 15.3446 14.6415 15.5596 14.966 15.7069C15.2906 15.8543 15.6429 15.9305 15.9994 15.9305C16.3558 15.9305 16.7081 15.8543 17.0327 15.7069C17.3573 15.5596 17.6466 15.3446 17.8813 15.0763L21.995 10.375H10.005Z" fill="#797979"/>
</svg>
