<svg width="32" height="32" viewBox="0 0 32 32" fill="none" xmlns="http://www.w3.org/2000/svg">
<circle cx="16" cy="16" r="16" fill="#D9D9D9"/>
<path d="M16 9.33325C13.6967 9.33325 11.8333 11.1966 11.8333 13.4999C11.8333 13.6657 11.8992 13.8247 12.0164 13.9419C12.1336 14.0591 12.2926 14.1249 12.4583 14.1249C12.6241 14.1249 12.7831 14.0591 12.9003 13.9419C13.0175 13.8247 13.0833 13.6657 13.0833 13.4999C13.0833 11.8866 14.3867 10.5833 16 10.5833C17.6133 10.5833 18.9167 11.8866 18.9167 13.4999C18.9167 14.2099 18.7317 14.6833 18.4758 15.0499C18.2058 15.4358 17.8367 15.7358 17.3908 16.0766L17.2758 16.1641C16.4342 16.8041 15.375 17.6091 15.375 19.3333V19.5416C15.375 19.7073 15.4409 19.8663 15.5581 19.9835C15.6753 20.1007 15.8342 20.1666 16 20.1666C16.1658 20.1666 16.3247 20.1007 16.442 19.9835C16.5592 19.8663 16.625 19.7073 16.625 19.5416V19.3333C16.625 18.2358 17.22 17.7808 18.1125 17.0983L18.1508 17.0691C18.59 16.7333 19.1067 16.3299 19.5008 15.7658C19.9092 15.1816 20.1667 14.4574 20.1667 13.4999C20.1667 11.1966 18.3033 9.33325 16 9.33325ZM16 23.4999C16.221 23.4999 16.433 23.4121 16.5893 23.2558C16.7455 23.0996 16.8333 22.8876 16.8333 22.6666C16.8333 22.4456 16.7455 22.2336 16.5893 22.0773C16.433 21.9211 16.221 21.8333 16 21.8333C15.779 21.8333 15.567 21.9211 15.4108 22.0773C15.2545 22.2336 15.1667 22.4456 15.1667 22.6666C15.1667 22.8876 15.2545 23.0996 15.4108 23.2558C15.567 23.4121 15.779 23.4999 16 23.4999Z" fill="#797979"/>
</svg>
