<svg width="132" height="22" viewBox="0 0 132 22" fill="none" xmlns="http://www.w3.org/2000/svg">
<path d="M0.39 21L7.95 0.989998H13.26L20.34 21H15.36L8.97 2.13L11.34 1.92L4.98 21H0.39ZM4.65 16.68L5.64 13.11H14.73L15.18 16.68H4.65ZM27.1622 21H22.7222V0.0899992H27.1622V21ZM35.5704 21H31.1304V0.0899992H35.5704V21ZM46.4086 21.45C44.8886 21.45 43.5386 21.14 42.3586 20.52C41.1986 19.88 40.2886 18.98 39.6286 17.82C38.9886 16.64 38.6686 15.24 38.6686 13.62C38.6686 10.98 39.3186 8.94 40.6186 7.5C41.9386 6.04 43.8186 5.31 46.2586 5.31C47.9386 5.31 49.2886 5.67 50.3086 6.39C51.3486 7.11 52.1086 8.16 52.5886 9.54C53.0686 10.92 53.2986 12.6 53.2786 14.58H41.7286L41.2486 11.73H49.5886L48.9286 13.14C48.9086 11.52 48.6786 10.38 48.2386 9.72C47.7986 9.06 47.0786 8.73 46.0786 8.73C45.5186 8.73 45.0086 8.87 44.5486 9.15C44.1086 9.43 43.7586 9.9 43.4986 10.56C43.2586 11.2 43.1386 12.09 43.1386 13.23C43.1386 14.67 43.4786 15.78 44.1586 16.56C44.8586 17.34 45.9686 17.73 47.4886 17.73C48.0486 17.73 48.5986 17.67 49.1386 17.55C49.6986 17.41 50.2186 17.25 50.6986 17.07C51.1786 16.89 51.5886 16.73 51.9286 16.59V20.43C51.2086 20.73 50.3986 20.97 49.4986 21.15C48.6186 21.35 47.5886 21.45 46.4086 21.45ZM60.5168 21L54.1868 5.82H59.0468L63.6368 17.52L62.5568 17.55L66.6368 5.82H71.3468L65.0168 21H60.5168ZM80.0121 21.45C78.4921 21.45 77.1421 21.14 75.9621 20.52C74.8021 19.88 73.8921 18.98 73.2321 17.82C72.5921 16.64 72.2721 15.24 72.2721 13.62C72.2721 10.98 72.9221 8.94 74.2221 7.5C75.5421 6.04 77.4221 5.31 79.8621 5.31C81.5421 5.31 82.8921 5.67 83.9121 6.39C84.9521 7.11 85.7121 8.16 86.1921 9.54C86.6721 10.92 86.9021 12.6 86.8821 14.58H75.3321L74.8521 11.73H83.1921L82.5321 13.14C82.5121 11.52 82.2821 10.38 81.8421 9.72C81.4021 9.06 80.6821 8.73 79.6821 8.73C79.1221 8.73 78.6121 8.87 78.1521 9.15C77.7121 9.43 77.3621 9.9 77.1021 10.56C76.8621 11.2 76.7421 12.09 76.7421 13.23C76.7421 14.67 77.0821 15.78 77.7621 16.56C78.4621 17.34 79.5721 17.73 81.0921 17.73C81.6521 17.73 82.2021 17.67 82.7421 17.55C83.3021 17.41 83.8221 17.25 84.3021 17.07C84.7821 16.89 85.1921 16.73 85.5321 16.59V20.43C84.8121 20.73 84.0021 20.97 83.1021 21.15C82.2221 21.35 81.1921 21.45 80.0121 21.45ZM89.9878 7.11C90.3678 6.91 90.8678 6.71 91.4878 6.51C92.1078 6.29 92.7878 6.1 93.5278 5.94C94.2678 5.78 95.0078 5.65 95.7478 5.55C96.5078 5.45 97.2078 5.4 97.8478 5.4C99.2078 5.4 100.368 5.58 101.328 5.94C102.288 6.28 103.018 6.84 103.518 7.62C104.038 8.4 104.298 9.46 104.298 10.8V21H99.8278V11.7C99.8278 11.32 99.7678 10.97 99.6478 10.65C99.5478 10.33 99.3878 10.06 99.1678 9.84C98.9478 9.6 98.6478 9.42 98.2678 9.3C97.8878 9.16 97.4278 9.09 96.8878 9.09C96.4278 9.09 95.9678 9.15 95.5078 9.27C95.0478 9.37 94.6978 9.48 94.4578 9.6V21H89.9878V7.11ZM114.479 21.6C112.719 21.6 111.409 21.19 110.549 20.37C109.689 19.53 109.259 18.35 109.259 16.83V9.24H107.039V5.82H109.259V1.65H113.939V5.82H117.269V9.24H113.939V16.26C113.939 16.78 114.049 17.17 114.269 17.43C114.489 17.67 114.859 17.79 115.379 17.79C115.679 17.79 116.009 17.73 116.369 17.61C116.729 17.49 117.029 17.34 117.269 17.16V21C116.849 21.22 116.389 21.37 115.889 21.45C115.409 21.55 114.939 21.6 114.479 21.6ZM125.162 21.45C124.082 21.45 123.152 21.33 122.372 21.09C121.612 20.87 120.892 20.62 120.212 20.34V16.41C120.632 16.69 121.102 16.98 121.622 17.28C122.142 17.56 122.712 17.79 123.332 17.97C123.972 18.15 124.642 18.24 125.342 18.24C126.062 18.24 126.562 18.12 126.842 17.88C127.142 17.62 127.292 17.31 127.292 16.95C127.292 16.61 127.142 16.34 126.842 16.14C126.542 15.92 126.152 15.74 125.672 15.6C125.192 15.46 124.682 15.33 124.142 15.21C123.662 15.11 123.182 14.96 122.702 14.76C122.222 14.54 121.792 14.25 121.412 13.89C121.032 13.53 120.722 13.09 120.482 12.57C120.262 12.03 120.152 11.38 120.152 10.62C120.152 9.64 120.342 8.83 120.722 8.19C121.102 7.53 121.602 7 122.222 6.6C122.842 6.2 123.512 5.92 124.232 5.76C124.952 5.58 125.652 5.5 126.332 5.52C127.572 5.56 128.552 5.7 129.272 5.94C130.012 6.16 130.682 6.45 131.282 6.81V10.32C130.602 9.94 129.922 9.59 129.242 9.27C128.582 8.93 127.822 8.76 126.962 8.76C126.182 8.76 125.622 8.88 125.282 9.12C124.942 9.36 124.772 9.68 124.772 10.08C124.772 10.46 124.882 10.76 125.102 10.98C125.342 11.2 125.652 11.38 126.032 11.52C126.412 11.64 126.832 11.76 127.292 11.88C127.792 12 128.302 12.15 128.822 12.33C129.362 12.49 129.862 12.73 130.322 13.05C130.802 13.35 131.182 13.78 131.462 14.34C131.762 14.88 131.912 15.6 131.912 16.5C131.892 17.72 131.562 18.7 130.922 19.44C130.282 20.16 129.452 20.68 128.432 21C127.432 21.3 126.342 21.45 125.162 21.45Z" fill="#A0C49D"/>
</svg>
