<svg width="29" height="29" viewBox="0 0 29 29" fill="none" xmlns="http://www.w3.org/2000/svg">
<path d="M3.51318 9.44921L4.75535 21.6939C4.88288 22.9515 5.47272 24.117 6.41056 24.9645C7.34841 25.8121 8.56748 26.2813 9.83156 26.2813H19.1684C20.4324 26.2813 21.6515 25.8121 22.5893 24.9645C23.5272 24.117 24.117 22.9515 24.2446 21.6939L25.4867 9.44861L3.51318 9.44921Z" stroke="#A0C49D" stroke-linecap="round" stroke-linejoin="round"/>
<path d="M9.44482 9.44915V7.74782C9.44482 6.40729 9.97735 5.12167 10.9252 4.17378C11.8731 3.22588 13.1588 2.69336 14.4993 2.69336C15.8398 2.69336 17.1254 3.22588 18.0733 4.17378C19.0212 5.12167 19.5537 6.40729 19.5537 7.74782V9.44855M12.3237 20.7797C12.807 21.1851 13.3284 21.3718 14.4999 21.3718H15.0938C15.5582 21.3711 16.0033 21.1861 16.3313 20.8573C16.6593 20.5285 16.8433 20.0829 16.8428 19.6185C16.8433 19.1541 16.6593 18.7085 16.3313 18.3797C16.0033 18.0509 15.5582 17.8658 15.0938 17.8652H13.906C13.676 17.865 13.4483 17.8194 13.236 17.7312C13.0236 17.6429 12.8307 17.5137 12.6683 17.3509C12.5058 17.1881 12.3771 16.9948 12.2893 16.7823C12.2016 16.5697 12.1566 16.3419 12.1569 16.1119C12.1566 15.6476 12.3407 15.2021 12.6686 14.8735C12.9966 14.5448 13.4417 14.3599 13.906 14.3592H14.4999C15.672 14.3592 16.1934 14.5447 16.6761 14.9507" stroke="#A0C49D" stroke-linecap="round" stroke-linejoin="round"/>
</svg>
