<svg width="16" height="13" viewBox="0 0 16 13" fill="none" xmlns="http://www.w3.org/2000/svg">
<path d="M9.74971 2.925C9.39091 2.925 9.09971 2.6338 9.09971 2.275V1.3H6.49971V2.275C6.49971 2.6338 6.20851 2.925 5.84971 2.925C5.49091 2.925 5.19971 2.6338 5.19971 2.275V1.3C5.19971 0.583051 5.78276 0 6.49971 0H9.09971C9.81666 0 10.3997 0.583051 10.3997 1.3V2.275C10.3997 2.6338 10.1085 2.925 9.74971 2.925Z" fill="white"/>
<path d="M8.26151 8.69705C8.14451 8.74255 7.97551 8.77505 7.80001 8.77505C7.62451 8.77505 7.45551 8.74255 7.29951 8.68405L0 6.25305V11.2126C0 12.2006 0.799501 13.0001 1.7875 13.0001H13.8125C14.8005 13.0001 15.6 12.2006 15.6 11.2126V6.25305L8.26151 8.69705Z" fill="white"/>
<path d="M15.6 3.73751V5.22602L7.95601 7.77402C7.90401 7.79352 7.85201 7.80002 7.80001 7.80002C7.74801 7.80002 7.69601 7.79352 7.64401 7.77402L0 5.22602V3.73751C0 2.74951 0.799501 1.95001 1.7875 1.95001H13.8125C14.8005 1.95001 15.6 2.74951 15.6 3.73751Z" fill="white"/>
</svg>
