<svg width="32" height="32" viewBox="0 0 32 32" fill="none" xmlns="http://www.w3.org/2000/svg">
<circle cx="16" cy="16" r="16" fill="#D9D9D9"/>
<path d="M14.2473 12.2662C14.2749 12.2541 14.3052 12.2491 14.3352 12.2516C14.3653 12.2542 14.3942 12.2643 14.4194 12.281C14.4445 12.2977 14.465 12.3204 14.4791 12.3471C14.4932 12.3738 14.5003 12.4036 14.4998 12.4337V13.875C14.4998 14.0408 14.5657 14.1997 14.6829 14.3169C14.8001 14.4341 14.9591 14.5 15.1248 14.5C15.9586 14.5 17.6411 14.5062 19.2498 15.5275C20.4798 16.3075 21.7373 17.7275 22.4936 20.3725C21.2186 19.1437 19.7623 18.4775 18.4873 18.1237C17.7036 17.9073 16.8982 17.779 16.0861 17.7412C15.7536 17.7266 15.4207 17.73 15.0886 17.7512H15.0723L15.0661 17.7525L15.1248 18.375L15.0623 17.7525C14.9081 17.768 14.7651 17.8403 14.6611 17.9553C14.5572 18.0704 14.4997 18.2199 14.4998 18.375V19.8162C14.4998 19.9512 14.3623 20.0362 14.2473 19.9837L9.26733 16.3175C9.25043 16.305 9.2329 16.2933 9.21483 16.2825C9.18765 16.2662 9.16516 16.2431 9.14955 16.2155C9.13393 16.1879 9.12573 16.1567 9.12573 16.125C9.12573 16.0933 9.13393 16.0621 9.14955 16.0345C9.16516 16.0069 9.18765 15.9838 9.21483 15.9675C9.23291 15.9567 9.25043 15.945 9.26733 15.9325L14.2473 12.2662ZM15.7498 18.9825C15.8348 18.9825 15.9286 18.9862 16.0286 18.99C16.5711 19.015 17.3211 19.0975 18.1536 19.3287C19.8111 19.7887 21.7736 20.8312 23.0786 23.1787C23.1492 23.3055 23.2616 23.4037 23.3966 23.4566C23.5317 23.5095 23.6809 23.5138 23.8188 23.4687C23.9567 23.4236 24.0746 23.332 24.1523 23.2096C24.23 23.0871 24.2627 22.9414 24.2448 22.7975C23.6648 18.16 21.8873 15.72 19.9198 14.4725C18.3636 13.485 16.7611 13.295 15.7498 13.2587V12.4337C15.7499 12.1763 15.6806 11.9237 15.549 11.7024C15.4175 11.4811 15.2287 11.2995 15.0025 11.1766C14.7763 11.0537 14.5211 10.9941 14.2639 11.0042C14.0067 11.0143 13.757 11.0936 13.5411 11.2337L8.54858 14.9087C8.34218 15.0376 8.17196 15.2168 8.05395 15.4296C7.93594 15.6424 7.87402 15.8817 7.87402 16.125C7.87402 16.3683 7.93594 16.6076 8.05395 16.8204C8.17196 17.0332 8.34218 17.2124 8.54858 17.3412L13.5411 21.0162C13.757 21.1564 14.0067 21.2357 14.2639 21.2458C14.5211 21.2559 14.7763 21.1963 15.0025 21.0734C15.2287 20.9505 15.4175 20.7689 15.549 20.5476C15.6806 20.3263 15.7499 20.0737 15.7498 19.8162V18.9825Z" fill="#797979"/>
</svg>
