<svg width="37" height="32" viewBox="0 0 37 32" fill="none" xmlns="http://www.w3.org/2000/svg">
<path d="M30.5305 4.82188C30.167 4.45842 29.8035 4.09496 29.4401 3.7315C28.3497 2.56844 27.1866 1.40538 25.7328 0.67846C24.0609 -0.193839 22.2436 0.0242288 20.4263 0.0242288C17.6641 0.0242288 10.7583 0.0242288 6.68762 0.0242288L9.4499 3.7315C14.4656 3.7315 22.3163 3.7315 25.9509 3.7315C27.4774 3.7315 28.7859 4.02227 30.0216 4.82188C30.2397 4.89457 30.4578 4.89457 30.5305 4.82188Z" fill="#BAFCB5"/>
<path d="M33.5835 10.7826C33.2201 10.4191 32.8566 10.0557 32.4931 9.6922C31.4028 8.52914 30.2397 7.36608 28.7859 6.63916C27.114 5.76686 25.2967 5.98494 23.4794 5.98494C21.0806 5.98494 15.3379 5.98494 11.2672 5.98494L14.0295 9.6922C18.9725 9.6922 25.7328 9.6922 29.0766 9.6922C30.6032 9.6922 31.9116 9.98297 33.1474 10.7826C33.2928 10.8553 33.4381 10.8553 33.5835 10.7826Z" fill="#BAFCB5"/>
<path d="M37 16.5979C36.6366 16.2345 36.2731 15.871 35.9097 15.5075C34.8193 14.3445 33.6562 13.1814 32.2024 12.4545C30.5305 11.5822 28.7132 11.8003 26.8959 11.8003C24.6425 11.8003 19.6995 11.8003 15.7014 11.8003L18.4637 15.5075C23.2613 15.5075 29.3674 15.5075 32.4205 15.5075C33.947 15.5075 35.2554 15.7983 36.4912 16.5979C36.7093 16.6706 36.8547 16.7433 37 16.5979Z" fill="#BAFCB5"/>
<path d="M6.39685 26.4113C6.76031 26.7747 7.12377 27.1382 7.48722 27.5016C8.5776 28.6647 9.74066 29.8278 11.1945 30.5547C12.8664 31.427 14.6837 31.2089 16.501 31.2089H30.2397L27.4774 27.5016C22.4617 27.5016 14.611 27.5016 10.9764 27.5016C9.4499 27.5016 8.14145 27.2109 6.90569 26.4113C6.68761 26.3386 6.54223 26.3386 6.39685 26.4113Z" fill="#BAFCB5"/>
<path d="M3.34375 20.4505C3.70721 20.814 4.07067 21.1775 4.43412 21.5409C5.5245 22.704 6.68756 23.8671 8.14139 24.594C9.81329 25.4663 11.6306 25.2482 13.4479 25.2482H25.6601L22.8978 21.5409C17.9547 21.5409 11.1944 21.5409 7.85062 21.5409C6.3241 21.5409 5.01565 21.2502 3.77989 20.4505C3.63451 20.3779 3.48913 20.3779 3.34375 20.4505Z" fill="#BAFCB5"/>
<path d="M0 14.5625C0.363458 14.926 0.726916 15.2894 1.09037 15.6529C2.18075 16.816 3.34382 17.979 4.79765 18.706C6.46955 19.5783 8.28683 19.3602 10.1041 19.3602H21.2986L18.5363 15.6529C13.7387 15.6529 7.63262 15.6529 4.57957 15.6529C3.05305 15.6529 1.7446 15.3621 0.508839 14.5625C0.290764 14.4898 0.145383 14.4898 0 14.5625Z" fill="#BAFCB5"/>
</svg>
