<svg width="31" height="31" viewBox="0 0 31 31" fill="none" xmlns="http://www.w3.org/2000/svg">
<g clip-path="url(#clip0_21_2372)">
<path d="M30.1643 0.836455C29.6256 0.297043 28.909 0 28.1462 0H17.2788C16.5165 0 15.7997 0.296922 15.2606 0.836092L0.836213 15.2605C0.296922 15.7997 0 16.5164 0 17.2786C0 18.0408 0.297043 18.7575 0.836213 19.2963L11.7034 30.1636C12.2424 30.703 12.9591 31 13.7214 31C14.4836 31 15.2003 30.7031 15.7395 30.1638L30.1639 15.7394C30.7031 15.2003 31 14.4835 31 13.7212V2.85376C31 2.09105 30.703 1.37429 30.1643 0.836455ZM25.2279 6.68032C24.7266 6.68032 24.3197 6.27344 24.3197 5.77212C24.3197 5.27079 24.7266 4.86391 25.2279 4.86391C25.7292 4.86391 26.1361 5.27079 26.1361 5.77212C26.1361 6.27344 25.7292 6.68032 25.2279 6.68032Z" fill="#B4D8B1"/>
<path d="M11.703 30.1635C12.242 30.7029 12.9587 30.9999 13.721 30.9999C14.4832 30.9999 15.1999 30.703 15.7391 30.1637L30.1635 15.7393C30.7027 15.2002 30.9996 14.4834 30.9996 13.7211V2.85366C30.9996 2.09089 30.7026 1.3742 30.1639 0.836361C30.1638 0.83624 30.1636 0.836119 30.1635 0.835938L25.8696 5.12986C26.034 5.29425 26.1357 5.5213 26.1357 5.77196C26.1357 6.27329 25.7288 6.68016 25.2275 6.68016C24.9768 6.68016 24.7498 6.57844 24.5854 6.41406L6.26953 24.73L11.703 30.1635Z" fill="#A0C49D"/>
<path d="M15.5002 12.8508C17.0738 12.8508 18.354 11.5706 18.354 9.99707C18.354 8.42351 17.0738 7.14331 15.5002 7.14331C13.9267 7.14331 12.6465 8.42351 12.6465 9.99707C12.6465 11.5706 13.9267 12.8508 15.5002 12.8508ZM15.5002 8.95966C16.0722 8.95966 16.5376 9.42502 16.5376 9.99701C16.5376 10.569 16.0722 11.0344 15.5002 11.0344C14.9283 11.0344 14.4629 10.569 14.4629 9.99701C14.4629 9.42502 14.9283 8.95966 15.5002 8.95966Z" fill="#FAF0FA"/>
<path d="M15.5002 18.1492C13.9267 18.1492 12.6465 19.4294 12.6465 21.0029C12.6465 22.5765 13.9267 23.8567 15.5002 23.8567C17.0738 23.8567 18.354 22.5765 18.354 21.0029C18.354 19.4294 17.0738 18.1492 15.5002 18.1492ZM15.5002 22.0403C14.9283 22.0403 14.4629 21.575 14.4629 21.003C14.4629 20.431 14.9283 19.9656 15.5002 19.9656C16.0722 19.9656 16.5376 20.431 16.5376 21.003C16.5376 21.575 16.0722 22.0403 15.5002 22.0403Z" fill="#E1E6F5"/>
<path d="M21.3374 14.5918H9.66406C9.16249 14.5918 8.75586 14.9984 8.75586 15.5C8.75586 16.0016 9.16249 16.4082 9.66406 16.4082H21.3374C21.8389 16.4082 22.2456 16.0016 22.2456 15.5C22.2456 14.9984 21.839 14.5918 21.3374 14.5918Z" fill="#FAF0FA"/>
<path d="M21.3367 16.4082C21.8382 16.4082 22.2449 16.0016 22.2449 15.5C22.2449 14.9984 21.8382 14.5918 21.3367 14.5918H16.4082L14.5918 16.4082H21.3367Z" fill="#E1E6F5"/>
</g>
<defs>
<clipPath id="clip0_21_2372">
<rect width="31" height="31" fill="white"/>
</clipPath>
</defs>
</svg>
