<svg width="32" height="32" viewBox="0 0 32 32" fill="none" xmlns="http://www.w3.org/2000/svg">
<circle cx="16" cy="16" r="16" fill="#D9D9D9"/>
<path d="M21.625 8.51942C21.1462 8.51942 20.6775 8.70505 20.3162 9.0663L14.125 15.2382L13.9881 15.375L13.9494 15.5707L13.5194 17.7582L13.3244 18.6757L14.2425 18.4807L16.43 18.0507L16.625 18.0119L16.7619 17.875L22.9338 11.6838C23.1924 11.4245 23.3685 11.0943 23.4399 10.7351C23.5112 10.3758 23.4746 10.0034 23.3346 9.66495C23.1946 9.32646 22.9576 9.03698 22.6534 8.83301C22.3491 8.62904 21.9913 8.52033 21.625 8.51942ZM21.625 9.73067C21.7712 9.73067 21.9156 9.80567 22.055 9.94505C22.3331 10.2238 22.3331 10.5263 22.055 10.8044L16 16.86L14.9256 17.075L15.1406 16.0007L21.1956 9.94567C21.3344 9.80692 21.4788 9.73067 21.625 9.73067ZM8.5 11V23.5H21V15.2575L19.75 16.5075V22.25H9.75V12.25H15.4925L16.7425 11H8.5Z" fill="#797979"/>
</svg>
