<svg width="16" height="16" viewBox="0 0 16 16" fill="none" xmlns="http://www.w3.org/2000/svg">
<path d="M7.33325 7.32006C7.33325 7.14325 7.40349 6.97368 7.52851 6.84865C7.65354 6.72363 7.82311 6.65339 7.99992 6.65339C8.17673 6.65339 8.3463 6.72363 8.47132 6.84865C8.59635 6.97368 8.66659 7.14325 8.66659 7.32006V11.3201C8.66659 11.4969 8.59635 11.6664 8.47132 11.7915C8.3463 11.9165 8.17673 11.9867 7.99992 11.9867C7.82311 11.9867 7.65354 11.9165 7.52851 11.7915C7.40349 11.6664 7.33325 11.4969 7.33325 11.3201V7.32006ZM7.99992 4.03406C7.82311 4.03406 7.65354 4.1043 7.52851 4.22932C7.40349 4.35434 7.33325 4.52391 7.33325 4.70072C7.33325 4.87754 7.40349 5.0471 7.52851 5.17213C7.65354 5.29715 7.82311 5.36739 7.99992 5.36739C8.17673 5.36739 8.3463 5.29715 8.47132 5.17213C8.59635 5.0471 8.66659 4.87754 8.66659 4.70072C8.66659 4.52391 8.59635 4.35434 8.47132 4.22932C8.3463 4.1043 8.17673 4.03406 7.99992 4.03406Z" fill="#797979"/>
<path fill-rule="evenodd" clip-rule="evenodd" d="M7.99992 1.33337C4.31792 1.33337 1.33325 4.31804 1.33325 8.00004C1.33325 11.682 4.31792 14.6667 7.99992 14.6667C11.6819 14.6667 14.6666 11.682 14.6666 8.00004C14.6666 4.31804 11.6819 1.33337 7.99992 1.33337ZM2.66659 8.00004C2.66659 9.41453 3.22849 10.7711 4.22868 11.7713C5.22888 12.7715 6.58543 13.3334 7.99992 13.3334C9.41441 13.3334 10.771 12.7715 11.7712 11.7713C12.7713 10.7711 13.3333 9.41453 13.3333 8.00004C13.3333 6.58555 12.7713 5.229 11.7712 4.2288C10.771 3.22861 9.41441 2.66671 7.99992 2.66671C6.58543 2.66671 5.22888 3.22861 4.22868 4.2288C3.22849 5.229 2.66659 6.58555 2.66659 8.00004Z" fill="#797979"/>
</svg>
