<svg width="52" height="52" viewBox="0 0 52 52" fill="none" xmlns="http://www.w3.org/2000/svg">
<g filter="url(#filter0_d_77_1810)">
<rect x="2" y="1" width="48" height="48" rx="24" fill="white"/>
<path d="M24.243 29.314L20 25.07L21.414 23.656L24.243 26.484L29.899 20.827L31.314 22.242L24.243 29.312V29.314Z" fill="#0FA958"/>
<path fill-rule="evenodd" clip-rule="evenodd" d="M15 25C15 18.925 19.925 14 26 14C32.075 14 37 18.925 37 25C37 31.075 32.075 36 26 36C19.925 36 15 31.075 15 25ZM26 34C24.8181 34 23.6478 33.7672 22.5558 33.3149C21.4639 32.8626 20.4718 32.1997 19.636 31.364C18.8003 30.5282 18.1374 29.5361 17.6851 28.4442C17.2328 27.3522 17 26.1819 17 25C17 23.8181 17.2328 22.6478 17.6851 21.5558C18.1374 20.4639 18.8003 19.4718 19.636 18.636C20.4718 17.8003 21.4639 17.1374 22.5558 16.6851C23.6478 16.2328 24.8181 16 26 16C28.3869 16 30.6761 16.9482 32.364 18.636C34.0518 20.3239 35 22.6131 35 25C35 27.3869 34.0518 29.6761 32.364 31.364C30.6761 33.0518 28.3869 34 26 34Z" fill="#0FA958"/>
<rect x="2.5" y="1.5" width="47" height="47" rx="23.5" stroke="#EAECF0"/>
</g>
<defs>
<filter id="filter0_d_77_1810" x="0" y="0" width="52" height="52" filterUnits="userSpaceOnUse" color-interpolation-filters="sRGB">
<feFlood flood-opacity="0" result="BackgroundImageFix"/>
<feColorMatrix in="SourceAlpha" type="matrix" values="0 0 0 0 0 0 0 0 0 0 0 0 0 0 0 0 0 0 127 0" result="hardAlpha"/>
<feOffset dy="1"/>
<feGaussianBlur stdDeviation="1"/>
<feColorMatrix type="matrix" values="0 0 0 0 0.0627451 0 0 0 0 0.0941176 0 0 0 0 0.156863 0 0 0 0.05 0"/>
<feBlend mode="normal" in2="BackgroundImageFix" result="effect1_dropShadow_77_1810"/>
<feBlend mode="normal" in="SourceGraphic" in2="effect1_dropShadow_77_1810" result="shape"/>
</filter>
</defs>
</svg>
