<svg width="16" height="16" viewBox="0 0 16 16" fill="none" xmlns="http://www.w3.org/2000/svg">
<path d="M3.60026 12.9267L5.99359 10.5333H13.6003C13.9539 10.5333 14.293 10.3929 14.5431 10.1428C14.7931 9.89277 14.9336 9.55363 14.9336 9.20001V3.20001C14.9336 2.84639 14.7931 2.50725 14.5431 2.2572C14.293 2.00715 13.9539 1.86668 13.6003 1.86668H4.93359C4.57997 1.86668 4.24083 2.00715 3.99078 2.2572C3.74074 2.50725 3.60026 2.84639 3.60026 3.20001V12.9267ZM3.60026 13.8667H2.93359V3.20001C2.93359 2.66958 3.14431 2.16087 3.51938 1.7858C3.89445 1.41073 4.40316 1.20001 4.93359 1.20001H13.6003C14.1307 1.20001 14.6394 1.41073 15.0145 1.7858C15.3895 2.16087 15.6003 2.66958 15.6003 3.20001V9.20001C15.6003 9.73044 15.3895 10.2392 15.0145 10.6142C14.6394 10.9893 14.1307 11.2 13.6003 11.2H6.26693L3.60026 13.8667ZM5.60026 3.86668H12.9336V4.53335H5.60026V3.86668ZM5.60026 5.86668H12.9336V6.53335H5.60026V5.86668ZM5.60026 7.86668H10.9336V8.53334H5.60026V7.86668Z" fill="#386C34"/>
</svg>
