<svg width="16" height="16" viewBox="0 0 16 16" fill="none" xmlns="http://www.w3.org/2000/svg">
<path d="M0.833333 14.6583L3.825 11.6667H13.3333C13.7754 11.6667 14.1993 11.4911 14.5118 11.1785C14.8244 10.8659 15 10.442 15 10V2.5C15 2.05797 14.8244 1.63405 14.5118 1.32149C14.1993 1.00893 13.7754 0.833333 13.3333 0.833333H2.5C2.05797 0.833333 1.63405 1.00893 1.32149 1.32149C1.00893 1.63405 0.833333 2.05797 0.833333 2.5V14.6583ZM0.833333 15.8333H0V2.5C0 1.83696 0.263392 1.20107 0.732233 0.732233C1.20107 0.263392 1.83696 0 2.5 0H13.3333C13.9964 0 14.6323 0.263392 15.1011 0.732233C15.5699 1.20107 15.8333 1.83696 15.8333 2.5V10C15.8333 10.663 15.5699 11.2989 15.1011 11.7678C14.6323 12.2366 13.9964 12.5 13.3333 12.5H4.16667L0.833333 15.8333ZM3.33333 3.33333H12.5V4.16667H3.33333V3.33333ZM3.33333 5.83333H12.5V6.66667H3.33333V5.83333ZM3.33333 8.33333H10V9.16667H3.33333V8.33333Z" fill="#797979" fill-opacity="0.5"/>
</svg>
