<svg width="32" height="32" viewBox="0 0 32 32" fill="none" xmlns="http://www.w3.org/2000/svg">
<circle cx="16" cy="16" r="16" fill="#D9D9D9"/>
<path d="M23.2945 11.4156L22.0445 8.91563C22.0056 8.83767 21.9457 8.77211 21.8716 8.7263C21.7975 8.68048 21.7121 8.65622 21.625 8.65625H10.375C10.2879 8.65622 10.2025 8.68048 10.1284 8.7263C10.0543 8.77211 9.99438 8.83767 9.95547 8.91563L8.70547 11.4156C8.67324 11.4807 8.6564 11.5524 8.65625 11.625V22.25C8.65625 22.5401 8.77148 22.8183 8.9766 23.0234C9.18172 23.2285 9.45992 23.3438 9.75 23.3438H22.25C22.5401 23.3438 22.8183 23.2285 23.0234 23.0234C23.2285 22.8183 23.3438 22.5401 23.3438 22.25V11.625C23.3436 11.5524 23.3268 11.4807 23.2945 11.4156ZM10.6648 9.59375H21.3352L22.1164 11.1562H9.88359L10.6648 9.59375ZM22.25 22.4062H9.75C9.70856 22.4062 9.66882 22.3898 9.63951 22.3605C9.61021 22.3312 9.59375 22.2914 9.59375 22.25V12.0938H22.4062V22.25C22.4062 22.2914 22.3898 22.3312 22.3605 22.3605C22.3312 22.3898 22.2914 22.4062 22.25 22.4062ZM18.8313 17.5437C18.919 17.6316 18.9683 17.7508 18.9683 17.875C18.9683 17.9992 18.919 18.1184 18.8313 18.2063L16.3313 20.7063C16.2434 20.794 16.1242 20.8433 16 20.8433C15.8758 20.8433 15.7566 20.794 15.6688 20.7063L13.1688 18.2063C13.086 18.1174 13.0409 17.9999 13.043 17.8784C13.0452 17.757 13.0944 17.6411 13.1802 17.5552C13.2661 17.4694 13.382 17.4202 13.5034 17.418C13.6249 17.4159 13.7424 17.4609 13.8312 17.5437L15.5312 19.243V14.125C15.5312 14.0007 15.5806 13.8815 15.6685 13.7935C15.7565 13.7056 15.8757 13.6562 16 13.6562C16.1243 13.6562 16.2435 13.7056 16.3315 13.7935C16.4194 13.8815 16.4688 14.0007 16.4688 14.125V19.243L18.1687 17.5437C18.2566 17.456 18.3758 17.4067 18.5 17.4067C18.6242 17.4067 18.7434 17.456 18.8313 17.5437Z" fill="#797979"/>
</svg>
