<svg width="16" height="16" viewBox="0 0 16 16" fill="none" xmlns="http://www.w3.org/2000/svg">
<g clip-path="url(#clip0_740_68)">
<path d="M14.1399 10.5933C13.7158 11.5963 13.0525 12.4801 12.2079 13.1675C11.3633 13.8549 10.3631 14.3249 9.2949 14.5365C8.22668 14.7481 7.12289 14.6948 6.08004 14.3812C5.03719 14.0676 4.08703 13.5034 3.31262 12.7378C2.53822 11.9722 1.96315 11.0285 1.6377 9.98929C1.31225 8.95009 1.24632 7.84698 1.44568 6.77641C1.64503 5.70584 2.10361 4.70041 2.78131 3.84801C3.45901 2.99561 4.3352 2.3222 5.33328 1.88666" stroke="#797979" stroke-linecap="round" stroke-linejoin="round"/>
<path d="M14.6667 8.00001C14.6667 7.12453 14.4942 6.25762 14.1592 5.44879C13.8242 4.63995 13.3331 3.90502 12.714 3.28596C12.095 2.66691 11.3601 2.17584 10.5512 1.84081C9.74239 1.50578 8.87548 1.33334 8 1.33334V8.00001H14.6667Z" stroke="#797979" stroke-linecap="round" stroke-linejoin="round"/>
</g>
<defs>
<clipPath id="clip0_740_68">
<rect width="16" height="16" fill="white"/>
</clipPath>
</defs>
</svg>
