<svg width="20" height="20" viewBox="0 0 20 20" fill="none" xmlns="http://www.w3.org/2000/svg">
<path d="M7.56234 11.8751L9.99984 10.3959L12.4373 11.8751L11.7915 9.10425L13.9582 7.22925L11.104 7.00008L9.99984 4.37508L8.89567 7.00008L6.0415 7.22925L8.20817 9.10425L7.56234 11.8751ZM1.6665 18.3334V3.33342C1.6665 2.87508 1.82984 2.48258 2.1565 2.15592C2.48317 1.82925 2.87539 1.66619 3.33317 1.66675H16.6665C17.1248 1.66675 17.5173 1.83008 17.844 2.15675C18.1707 2.48342 18.3337 2.87564 18.3332 3.33342V13.3334C18.3332 13.7917 18.1698 14.1842 17.8432 14.5109C17.5165 14.8376 17.1243 15.0006 16.6665 15.0001H4.99984L1.6665 18.3334ZM4.2915 13.3334H16.6665V3.33342H3.33317V14.2709L4.2915 13.3334Z" fill="#797979" fill-opacity="0.5"/>
</svg>
