<svg width="16" height="16" viewBox="0 0 16 16" fill="none" xmlns="http://www.w3.org/2000/svg">
<path d="M14.647 1.57469C14.2103 1.09357 13.6927 0.71295 13.1237 0.454608C12.5548 0.196266 11.9456 0.0652676 11.3311 0.0691028C10.7166 0.0729381 10.1088 0.211532 9.54251 0.476959C8.97619 0.742387 8.46243 1.12944 8.03063 1.61599C7.60456 1.11576 7.09303 0.715221 6.52604 0.437847C5.95905 0.160472 5.34801 0.0118457 4.72873 0.000679655C4.10946 -0.0104864 3.49441 0.116033 2.91964 0.37282C2.34488 0.629608 1.82196 1.0115 1.38154 1.4961C0.941129 1.9807 0.592079 2.55827 0.354855 3.19494C0.117632 3.83161 -0.00299164 4.51458 5.63536e-05 5.2038C0.00310434 5.89302 0.129763 6.57463 0.372606 7.20867C0.615449 7.84272 0.96959 8.41643 1.41427 8.89619L7.63729 15.8171C7.68871 15.8751 7.74996 15.9211 7.81748 15.9524C7.88501 15.9838 7.95745 16 8.03063 16C8.10381 16 8.17626 15.9838 8.24378 15.9524C8.3113 15.9211 8.37255 15.8751 8.42398 15.8171L14.647 8.89619C15.5138 7.92195 16 6.6064 16 5.23544C16 3.86448 15.5138 2.54893 14.647 1.57469ZM13.8603 8.029L8.03063 14.504L2.63141 8.49563L2.20096 8.029C1.53996 7.28864 1.16897 6.28735 1.16897 5.2437C1.16897 4.20004 1.53996 3.19876 2.20096 2.45839C3.82258 0.682735 6.23089 1.04613 7.641 2.94154C7.75023 3.04865 7.88893 3.11126 8.03434 3.1191C8.18002 3.10915 8.3185 3.04518 8.42769 2.93741C11.7414 -1.42741 17.2223 3.80046 13.8603 8.029Z" fill="#797979" fill-opacity="0.5"/>
</svg>
