<svg width="16" height="16" viewBox="0 0 16 16" fill="none" xmlns="http://www.w3.org/2000/svg">
<g clip-path="url(#clip0_740_2138)">
<path d="M8 10C9.10457 10 10 9.10457 10 8C10 6.89543 9.10457 6 8 6C6.89543 6 6 6.89543 6 8C6 9.10457 6.89543 10 8 10Z" stroke="#797979" stroke-linecap="round" stroke-linejoin="round"/>
<path d="M12.9334 9.99999C12.8447 10.2011 12.8182 10.4241 12.8574 10.6404C12.8966 10.8566 12.9997 11.0562 13.1534 11.2133L13.1934 11.2533C13.3174 11.3772 13.4157 11.5242 13.4828 11.6861C13.5499 11.8479 13.5845 12.0214 13.5845 12.1967C13.5845 12.3719 13.5499 12.5454 13.4828 12.7072C13.4157 12.8691 13.3174 13.0162 13.1934 13.14C13.0696 13.264 12.9225 13.3623 12.7607 13.4294C12.5988 13.4965 12.4253 13.531 12.2501 13.531C12.0749 13.531 11.9014 13.4965 11.7395 13.4294C11.5776 13.3623 11.4306 13.264 11.3067 13.14L11.2667 13.1C11.1096 12.9463 10.9101 12.8432 10.6938 12.804C10.4775 12.7648 10.2545 12.7912 10.0534 12.88C9.85624 12.9645 9.68807 13.1048 9.56962 13.2837C9.45117 13.4625 9.3876 13.6721 9.38675 13.8867V14C9.38675 14.3536 9.24627 14.6928 8.99622 14.9428C8.74618 15.1928 8.40704 15.3333 8.05341 15.3333C7.69979 15.3333 7.36065 15.1928 7.11061 14.9428C6.86056 14.6928 6.72008 14.3536 6.72008 14V13.94C6.71492 13.7193 6.64349 13.5053 6.51509 13.3258C6.38668 13.1463 6.20724 13.0095 6.00008 12.9333C5.799 12.8446 5.57595 12.8181 5.35969 12.8573C5.14343 12.8965 4.94387 12.9996 4.78675 13.1533L4.74675 13.1933C4.62292 13.3173 4.47587 13.4156 4.314 13.4827C4.15214 13.5498 3.97864 13.5844 3.80341 13.5844C3.62819 13.5844 3.45469 13.5498 3.29283 13.4827C3.13096 13.4156 2.98391 13.3173 2.86008 13.1933C2.73611 13.0695 2.63777 12.9224 2.57067 12.7606C2.50357 12.5987 2.46903 12.4252 2.46903 12.25C2.46903 12.0748 2.50357 11.9013 2.57067 11.7394C2.63777 11.5775 2.73611 11.4305 2.86008 11.3067L2.90008 11.2667C3.05377 11.1095 3.15687 10.91 3.19608 10.6937C3.2353 10.4775 3.20882 10.2544 3.12008 10.0533C3.03557 9.85614 2.89525 9.68798 2.71639 9.56953C2.53753 9.45108 2.32794 9.38751 2.11341 9.38666H2.00008C1.64646 9.38666 1.30732 9.24618 1.05727 8.99613C0.807224 8.74608 0.666748 8.40695 0.666748 8.05332C0.666748 7.6997 0.807224 7.36056 1.05727 7.11051C1.30732 6.86047 1.64646 6.71999 2.00008 6.71999H2.06008C2.28074 6.71483 2.49475 6.6434 2.67428 6.515C2.85381 6.38659 2.99056 6.20715 3.06675 5.99999C3.15549 5.79891 3.18196 5.57586 3.14275 5.3596C3.10354 5.14333 3.00044 4.94378 2.84675 4.78666L2.80675 4.74666C2.68278 4.62283 2.58443 4.47577 2.51734 4.31391C2.45024 4.15205 2.4157 3.97854 2.4157 3.80332C2.4157 3.6281 2.45024 3.4546 2.51734 3.29274C2.58443 3.13087 2.68278 2.98382 2.80675 2.85999C2.93058 2.73602 3.07763 2.63768 3.23949 2.57058C3.40136 2.50348 3.57486 2.46894 3.75008 2.46894C3.9253 2.46894 4.0988 2.50348 4.26067 2.57058C4.42253 2.63768 4.56958 2.73602 4.69341 2.85999L4.73341 2.89999C4.89053 3.05368 5.09009 3.15678 5.30636 3.19599C5.52262 3.23521 5.74567 3.20873 5.94675 3.11999H6.00008C6.19726 3.03548 6.36543 2.89516 6.48388 2.7163C6.60233 2.53744 6.66589 2.32785 6.66675 2.11332V1.99999C6.66675 1.64637 6.80722 1.30723 7.05727 1.05718C7.30732 0.807132 7.64646 0.666656 8.00008 0.666656C8.3537 0.666656 8.69284 0.807132 8.94289 1.05718C9.19294 1.30723 9.33341 1.64637 9.33341 1.99999V2.05999C9.33427 2.27451 9.39784 2.48411 9.51629 2.66297C9.63474 2.84183 9.8029 2.98215 10.0001 3.06666C10.2012 3.1554 10.4242 3.18187 10.6405 3.14266C10.8567 3.10345 11.0563 3.00035 11.2134 2.84666L11.2534 2.80666C11.3772 2.68269 11.5243 2.58434 11.6862 2.51724C11.848 2.45014 12.0215 2.41561 12.1967 2.41561C12.372 2.41561 12.5455 2.45014 12.7073 2.51724C12.8692 2.58434 13.0163 2.68269 13.1401 2.80666C13.264 2.93049 13.3624 3.07754 13.4295 3.2394C13.4966 3.40127 13.5311 3.57477 13.5311 3.74999C13.5311 3.92521 13.4966 4.09871 13.4295 4.26058C13.3624 4.42244 13.264 4.56949 13.1401 4.69332L13.1001 4.73332C12.9464 4.89044 12.8433 5.09 12.8041 5.30626C12.7649 5.52253 12.7913 5.74558 12.8801 5.94666V5.99999C12.9646 6.19717 13.1049 6.36533 13.2838 6.48379C13.4626 6.60224 13.6722 6.6658 13.8867 6.66666H14.0001C14.3537 6.66666 14.6928 6.80713 14.9429 7.05718C15.1929 7.30723 15.3334 7.64637 15.3334 7.99999C15.3334 8.35361 15.1929 8.69275 14.9429 8.9428C14.6928 9.19285 14.3537 9.33332 14.0001 9.33332H13.9401C13.7256 9.33418 13.516 9.39774 13.3371 9.51619C13.1582 9.63465 13.0179 9.80281 12.9334 9.99999Z" stroke="#797979" stroke-linecap="round" stroke-linejoin="round"/>
</g>
<defs>
<clipPath id="clip0_740_2138">
<rect width="16" height="16" fill="white"/>
</clipPath>
</defs>
</svg>
