<svg width="16" height="16" viewBox="0 0 16 16" fill="none" xmlns="http://www.w3.org/2000/svg">
<path d="M3.33317 8.00004C3.15636 8.00004 2.98679 8.07028 2.86177 8.1953C2.73674 8.32033 2.6665 8.4899 2.6665 8.66671V14C2.6665 14.1769 2.73674 14.3464 2.86177 14.4714C2.98679 14.5965 3.15636 14.6667 3.33317 14.6667C3.50998 14.6667 3.67955 14.5965 3.80457 14.4714C3.9296 14.3464 3.99984 14.1769 3.99984 14V8.66671C3.99984 8.4899 3.9296 8.32033 3.80457 8.1953C3.67955 8.07028 3.50998 8.00004 3.33317 8.00004ZM6.6665 1.33337C6.48969 1.33337 6.32012 1.40361 6.1951 1.52864C6.07008 1.65366 5.99984 1.82323 5.99984 2.00004V14C5.99984 14.1769 6.07008 14.3464 6.1951 14.4714C6.32012 14.5965 6.48969 14.6667 6.6665 14.6667C6.84331 14.6667 7.01288 14.5965 7.13791 14.4714C7.26293 14.3464 7.33317 14.1769 7.33317 14V2.00004C7.33317 1.82323 7.26293 1.65366 7.13791 1.52864C7.01288 1.40361 6.84331 1.33337 6.6665 1.33337ZM13.3332 10.6667C13.1564 10.6667 12.9868 10.7369 12.8618 10.862C12.7367 10.987 12.6665 11.1566 12.6665 11.3334V14C12.6665 14.1769 12.7367 14.3464 12.8618 14.4714C12.9868 14.5965 13.1564 14.6667 13.3332 14.6667C13.51 14.6667 13.6796 14.5965 13.8046 14.4714C13.9296 14.3464 13.9998 14.1769 13.9998 14V11.3334C13.9998 11.1566 13.9296 10.987 13.8046 10.862C13.6796 10.7369 13.51 10.6667 13.3332 10.6667ZM9.99984 5.33337C9.82303 5.33337 9.65346 5.40361 9.52843 5.52864C9.40341 5.65366 9.33317 5.82323 9.33317 6.00004V14C9.33317 14.1769 9.40341 14.3464 9.52843 14.4714C9.65346 14.5965 9.82303 14.6667 9.99984 14.6667C10.1766 14.6667 10.3462 14.5965 10.4712 14.4714C10.5963 14.3464 10.6665 14.1769 10.6665 14V6.00004C10.6665 5.82323 10.5963 5.65366 10.4712 5.52864C10.3462 5.40361 10.1766 5.33337 9.99984 5.33337Z" fill="#386C34"/>
</svg>
