<svg width="24" height="24" viewBox="0 0 24 24" fill="none" xmlns="http://www.w3.org/2000/svg">
<g clip-path="url(#clip0_182_1966)">
<path d="M12.2467 7.44678C11.7071 7.44741 11.172 7.54449 10.6667 7.73344L16.5333 13.6001C16.7248 13.0885 16.8219 12.5464 16.82 12.0001C16.8147 10.7907 16.3305 9.63254 15.4735 8.7792C14.6164 7.92585 13.4561 7.44677 12.2467 7.44678Z" fill="#5E6368"/>
<path d="M22.86 11.6867C20.6133 7.53335 16.6733 5.02002 12.3133 5.02002C11.1262 5.02281 9.94711 5.21408 8.82 5.58669L9.89333 6.66669C10.6839 6.46237 11.4968 6.35712 12.3133 6.35335C16.0667 6.35335 19.48 8.44669 21.5133 11.9734C20.7674 13.2818 19.7786 14.4357 18.6 15.3734L19.5467 16.32C20.9107 15.2196 22.0436 13.8601 22.88 12.32L23.0533 12L22.86 11.6867Z" fill="#5E6368"/>
<path d="M3.24667 3.85344L6.22 6.82677C4.34061 8.03685 2.8046 9.71062 1.76 11.6868L1.58667 12.0001L1.76 12.3201C4.00667 16.4734 7.94666 18.9868 12.3067 18.9868C14.0084 18.9864 15.6881 18.6013 17.22 17.8601L20.5533 21.1934L21.72 20.1934L4.38667 2.86011L3.24667 3.85344ZM8.78 9.38677C8.15629 10.2664 7.86395 11.3383 7.95474 12.4128C8.04554 13.4872 8.5136 14.4949 9.27607 15.2574C10.0385 16.0198 11.0462 16.4879 12.1207 16.5787C13.1951 16.6695 14.2671 16.3772 15.1467 15.7534L16.2133 16.8201C14.9785 17.3479 13.6496 17.6201 12.3067 17.6201C8.55333 17.6201 5.14 15.5268 3.10667 12.0001C4.08247 10.2723 5.48782 8.82557 7.18667 7.80011L8.78 9.38677Z" fill="#5E6368"/>
</g>
<defs>
<clipPath id="clip0_182_1966">
<rect width="24" height="24" fill="white"/>
</clipPath>
</defs>
</svg>
